SplineFontDB: 3.2
FontName: HershoMono-Regular
FullName: Hersho Mono Regular
FamilyName: Hersho Mono
Weight: Regular
Copyright: Copyright (c) 2023, Sim Domingo
UComments: "2023-9-4: Created with FontForge (http://fontforge.org)"
Version: 000.700
ItalicAngle: 0
UnderlinePosition: -83
UnderlineWidth: 41
Ascent: 833
Descent: 167
InvalidEm: 0
LayerCount: 2
Layer: 0 0 "Back" 1
Layer: 1 0 "Fore" 0
XUID: [1021 39 -546803219 6476244]
StyleMap: 0x0000
FSType: 0
OS2Version: 0
OS2_WeightWidthSlopeOnly: 0
OS2_UseTypoMetrics: 1
CreationTime: 1693767096
ModificationTime: 315532800
PfmFamily: 17
TTFWeight: 400
TTFWidth: 5
LineGap: 75
VLineGap: 0
OS2TypoAscent: 0
OS2TypoAOffset: 1
OS2TypoDescent: 0
OS2TypoDOffset: 1
OS2TypoLinegap: 75
OS2WinAscent: 0
OS2WinAOffset: 1
OS2WinDescent: 0
OS2WinDOffset: 1
HheadAscent: 0
HheadAOffset: 1
HheadDescent: 0
HheadDOffset: 1
OS2Vendor: 'PfEd'
Lookup: 6 0 0 "fixup_arrows_and_dashes" { "catch_short_options"  "catch_long_options"  "fixup_short_dashes_pre"  "fixup_short_dashes_post"  "fixup_mid_arrows"  "fixup_end_arrows"  "fixup_start_arrows"  } ['liga' ('DFLT' <'dflt' > 'latn' <'dflt' > ) ]
Lookup: 6 0 1 "fixup_double_arrows" { "fixup_double_greater_start"  "fixup_double_less_start"  "fixup_double_bar_start"  "fixup_double_greater_end"  "fixup_double_less_end"  "fixup_double_bar_end"  } ['liga' ('DFLT' <'dflt' > 'latn' <'dflt' > ) ]
Lookup: 6 0 0 "fixup_arrowhead_vs_operator" { "do_logical_or"  } ['liga' ('DFLT' <'dflt' > 'latn' <'dflt' > ) ]
Lookup: 5 0 0 "resolve_arrows_operator_ambiguity" { "do_logical_or_equals"  "do_greater_greater_greater"  "do_less_less_less"  "do_greater_greater_equal"  "do_less_less_equal"  "do_equal_operator"  } ['liga' ('DFLT' <'dflt' > 'latn' <'dflt' > ) ]
Lookup: 4 0 1 "auto ligatures" { "programming_symbols"  "numerals_colon"  } ['liga' ('DFLT' <'dflt' > 'latn' <'dflt' > ) ]
Lookup: 1 0 0 "start_arrows_lookup" { "start_arrows-1"  } []
Lookup: 1 0 0 "start_double_arrows_lookup" { "start_double_arrows-1"  } []

StartChar: o
Encoding: 110 111 0
AltUni2: 0000ba.ffffffff.0
Width: 480
VWidth: 833
Flags: HW
HStem: 0 67<184.431 295.548> 311 69<184.122 296.538>
VStem: 82 59<115.68 265.988> 339 59<115.683 267.094>
LayerCount: 2
Fore
SplineSet
240 324 m 0
 174 324 131 258 131 194 c 0
 131 124 167 54 240 54 c 0
 305 54 349 124 349 194 c 0
 349 260 312 324 240 324 c 0
240 380 m 0
 334 380 398 304 398 194 c 0
 398 82 332 0 240 0 c 0
 149 0 82 82 82 194 c 0
 82 305 146 380 240 380 c 0
EndSplineSet
Validated: 1
EndChar

StartChar: n
Encoding: 109 110 1
Width: 480
VWidth: 833
Flags: HW
HStem: 0 21G<85 139 338 392> 0 21G<85 139 338 392> 326 54<163.562 322.049>
VStem: 85 54<0 302.31 354 383> 338 54<0 306.551>
LayerCount: 2
Fore
SplineSet
87 383 m 1xb8
 141 383 l 1
 141 354 l 1
 173 371 210 380 243 380 c 3
 310 380 393 350 393 279 c 6
 393 0 l 5
 339 0 l 5
 339 279 l 6
 339 314 272 326 243 326 c 3
 195 326 141 296 141 279 c 2
 141 0 l 1
 87 0 l 1
 87 383 l 1xb8
EndSplineSet
Validated: 1
EndChar

StartChar: h
Encoding: 103 104 2
Width: 480
VWidth: 833
Flags: HW
HStem: 0 21G<83 137.074 340.916 395> 0 21G<83 137.074 340.916 395> 324 54<163.164 301.407> 628 20G<84.9383 139>
VStem: 85 54<0 300.453 353 648> 341 54<1 283.605>
LayerCount: 2
Fore
SplineSet
139 272 m 6xbc
 139 0 l 5
 86 0 l 5
 86 648 l 5
 140 648 l 5
 140 353 l 5
 170 370 200 378 237 378 c 7
 324 378 394 309 394 238 c 30
 394 0 l 5
 341 0 l 5
 341 238 l 6
 341 271 303 324 237 324 c 7
 178 324 139 287 139 272 c 6xbc
EndSplineSet
Validated: 1
EndChar

StartChar: i
Encoding: 104 105 4
Width: 480
VWidth: 833
Flags: HW
HStem: 1 63<268.091 396> 312 63<84 207.746> 457 93<186.949 262.901>
VStem: 180 90<463.793 542.272> 204 64<64.0154 312>
LayerCount: 2
Fore
SplineSet
292 64 m 26xe8
 396 64 l 1
 396 1 l 1
 236 1 l 2
 218 1 208 15 208 32 c 2xe8
 208 284 l 2
 208 302 203 312 183 312 c 2
 84 312 l 1
 84 375 l 1
 238 375 l 2
 255 375 270 360 270 343 c 2xf0
 270 343 268 191 268 92 c 24
 268 66 271 64 292 64 c 26xe8
224 457 m 3
 215 457 180 461 180 504 c 3
 180 530 200 550 224 550 c 3
 239 550 270 538 270 504 c 3xf0
 270 477 250 457 224 457 c 3
EndSplineSet
Validated: 1
EndChar

StartChar: j
Encoding: 105 106 5
Width: 480
VWidth: 833
Flags: HW
HStem: -167 54<186.145 291.842> -20 20G<93 147> -20 20G<93 147> 321 54<264 326.866> 457 93<305.632 380.39>
VStem: 93 54<-70.9383 0> 299 88<462.656 543.149> 328 54<-73.5558 319.599>
LayerCount: 2
Fore
SplineSet
342 457 m 3x9e
 302 457 299 492 299 504 c 3
 299 531 320 550 342 550 c 3
 361 550 387 536 387 504 c 3
 387 485 378 457 342 457 c 3x9e
328 307 m 2xbd
 328 314 322 321 314 321 c 10
 264 321 l 1
 264 375 l 1
 319 375 l 2
 353 375 382 348 382 315 c 2
 382 0 l 2xbd
 382 -87 324 -167 242 -167 c 0
 156 -167 93 -89 93 0 c 1
 147 0 l 1xdd
 147 -55 184 -113 242 -113 c 0
 297 -113 328 -51 328 0 c 2
 328 307 l 2xbd
EndSplineSet
Validated: 1
EndChar

StartChar: s
Encoding: 114 115 6
Width: 480
VWidth: 833
Flags: HW
HStem: 0 54<156.427 324.103> 164 54<166 331.339> 326 54<169.049 318.708>
VStem: 82 54<76.2514 105> 97 54<234.155 307.104> 344 54<73.981 148.783 263 301.467>
LayerCount: 2
Fore
SplineSet
97 274 m 3xec
 97 330 149 380 250 380 c 3
 343 380 392 317 392 263 c 1
 338 263 l 1
 338 291 318 326 250 326 c 3
 192 326 151 303 151 274 c 3xec
 151 238 181 218 250 218 c 3
 349 218 398 176 398 112 c 3
 398 45 333 0 250 0 c 3
 136 0 82 47 82 105 c 1
 136 105 l 1xf4
 136 78 183 54 250 54 c 3
 302 54 344 77 344 112 c 3
 344 147 312 164 250 164 c 3
 155 164 97 214 97 274 c 3xec
EndSplineSet
Validated: 1
EndChar

StartChar: v
Encoding: 117 118 7
Width: 480
VWidth: 833
Flags: HW
LayerCount: 2
Fore
SplineSet
85 382 m 5
 137 382 l 5
 234 87 l 5
 343 379 l 5
 395 379 l 5
 258 -0 l 5
 206 1 l 5
 85 382 l 5
EndSplineSet
Validated: 1
EndChar

StartChar: w
Encoding: 118 119 8
Width: 480
VWidth: 833
Flags: HW
HStem: 0 21G<100.947 163.843 290.581 354.421> 0 21G<100.947 163.843 290.581 354.421> 360 20G<28 86.1065 207.144 270.47 392.47 452>
LayerCount: 2
Fore
SplineSet
28 380 m 2xa0
 82 380 l 1
 136 117 l 1
 213 380 l 1
 266 380 l 1
 325 116 l 1
 398 380 l 1
 452 380 l 1
 349 0 l 1
 295 0 l 1
 236 267 l 1
 158 0 l 1
 105 0 l 1
 28 380 l 2xa0
EndSplineSet
Validated: 1
EndChar

StartChar: d
Encoding: 99 100 9
Width: 480
VWidth: 833
Flags: HW
LayerCount: 2
Fore
SplineSet
140 186 m 4
 140 120 167 55 233 55 c 4
 288 55 339 116 339 186 c 4
 339 257 287 320 233 320 c 4
 174 320 140 256 140 186 c 4
394 662 m 5
 394 1 l 5
 340 1 l 5
 340 51 l 5
 307 18 267 1 233 1 c 4
 134 1 86 88 86 186 c 4
 86 288 139 374 233 374 c 4
 268 374 307 357 340 324 c 5
 340 662 l 5
 394 662 l 5
EndSplineSet
Validated: 1
EndChar

StartChar: p
Encoding: 111 112 10
Width: 480
VWidth: 833
Flags: HW
HStem: 1 54<183.607 294.224> 318 54<184.217 298.437> 360 20G<84 138>
VStem: 84 54<-167 44 105.605 265.215 328 380> 342 54<107.547 268.214>
LayerCount: 2
Fore
SplineSet
84 380 m 5xb8
 138 380 l 5xb8
 138 328 l 5
 164 355 200 372 242 372 c 4xd8
 336 372 396 286 396 183 c 4
 396 92 331 1 242 1 c 4
 201 1 165 17 138 44 c 5
 138 -167 l 5
 84 -167 l 5
 84 380 l 5xb8
342 183 m 4
 342 243 312 318 242 318 c 4xd8
 166 318 139 236 139 183 c 4
 139 122 175 55 242 55 c 4
 301 55 342 125 342 183 c 4
EndSplineSet
Validated: 1
EndChar

StartChar: b
Encoding: 97 98 11
Width: 480
VWidth: 833
Flags: HW
HStem: 1 54<187.082 289.072> 320 54<187.912 291.654>
VStem: 86 54<0 51 108.63 264.883 324 650> 340 54<111.004 263.518>
LayerCount: 2
Fore
SplineSet
340 186 m 4
 340 256 306 320 247 320 c 4
 193 320 141 257 141 186 c 4
 141 116 192 55 247 55 c 4
 313 55 340 120 340 186 c 4
86 662 m 5
 140 662 l 5
 140 324 l 5
 173 357 212 374 247 374 c 4
 341 374 394 288 394 186 c 4
 394 88 346 1 247 1 c 4
 213 1 173 18 140 51 c 5
 140 1 l 5
 86 1 l 5
 86 662 l 5
EndSplineSet
Validated: 1
EndChar

StartChar: q
Encoding: 112 113 12
Width: 480
VWidth: 833
Flags: HW
HStem: 1 54<183.607 294.224> 318 54<184.217 298.437> 360 20G<84 138>
VStem: 84 54<-167 44 105.605 265.215 328 380> 342 54<107.547 268.214>
LayerCount: 2
Fore
SplineSet
396 380 m 5xb8
 396 -167 l 5
 342 -167 l 5
 342 44 l 5
 315 17 279 1 238 1 c 4
 149 1 84 92 84 183 c 4
 84 286 144 372 238 372 c 4xd8
 280 372 316 355 342 328 c 5
 342 380 l 5xb8
 396 380 l 5xb8
138 183 m 4
 138 125 179 55 238 55 c 4
 305 55 341 122 341 183 c 4
 341 236 314 318 238 318 c 4xd8
 168 318 138 243 138 183 c 4
EndSplineSet
Validated: 1
EndChar

StartChar: g
Encoding: 102 103 13
Width: 480
VWidth: 833
Flags: HW
HStem: -168 54<181.847 301.748> 4 54<185.937 289.23> 328 54<181.842 291.375>
VStem: 93 54<101.837 289.165> 107 54<-91.6298 -49> 333 54<-81.6846 44 113.475 281.08 344 381>
LayerCount: 2
Fore
SplineSet
333 -41 m 3xec
 333 -4 333 44 333 44 c 1
 310 19 278 4 241 4 c 3
 143 4 93 100 93 203 c 0xf4
 93 292 147 382 241 382 c 3
 276 382 309 368 333 344 c 1
 333 381 l 1
 387 381 l 1
 387 -41 l 3
 387 -119 315 -168 241 -168 c 3
 173 -168 107 -119 107 -49 c 16
 161 -49 l 3
 161 -63 175 -114 241 -114 c 3
 298 -114 333 -65 333 -41 c 3xec
147 203 m 0
 147 145 163 58 241 58 c 3
 302 58 333 143 333 203 c 0
 333 257 299 328 241 328 c 3
 166 328 147 258 147 203 c 0
EndSplineSet
Validated: 1
EndChar

StartChar: e
Encoding: 100 101 14
Width: 480
VWidth: 833
Flags: HW
HStem: 2 54<187.566 332.899> 168 54<145 335> 329 54<180.422 303.824>
VStem: 88 57<104.5 168 222 291.924> 335 57<222 296.848>
LayerCount: 2
Fore
SplineSet
145 168 m 1
 148 148 165 56 242 56 c 0
 286 56 314 64 344 85 c 1
 375 39 l 1
 335 12 294 2 242 2 c 0
 148 2 88 89 88 195 c 0
 88 290 134 383 242 383 c 0
 348 383 392 300 392 195 c 2
 392 168 l 1
 145 168 l 1
335 222 m 3
 335 264 322 329 242 329 c 0
 173 329 145 271 145 222 c 0
 335 222 l 3
EndSplineSet
Validated: 1
EndChar

StartChar: c
Encoding: 98 99 15
Width: 480
VWidth: 833
Flags: HW
HStem: 0 54<194.054 316.3> 325 54<196.788 322.746>
VStem: 87 54<113.617 264.586>
LayerCount: 2
Fore
SplineSet
349 277 m 1
 320 315 291 325 250 325 c 3
 196 325 141 259 141 187 c 3
 141 126 188 54 250 54 c 3
 283 54 323 73 342 101 c 1
 388 71 l 1
 383 64 377 56 371 50 c 0
 341 20 296 0 250 0 c 3
 158 0 87 94 87 187 c 3
 87 279 159 379 250 379 c 3
 302 379 350 366 393 311 c 1
 349 277 l 1
EndSplineSet
Validated: 1
EndChar

StartChar: a
Encoding: 96 97 16
AltUni2: 0000aa.ffffffff.0
Width: 480
VWidth: 833
Flags: HW
HStem: -1 54<165.171 315.732> 175 54<164.933 315.968> 329 54<166.623 304.498>
VStem: 88 54<75.9882 152.384> 338 54<0 23 75.9375 153.32 204 299.266>
LayerCount: 2
Fore
SplineSet
338 115 m 0
 338 159 276 175 237 175 c 0
 199 175 142 155 142 113 c 0
 142 70 204 53 240 53 c 0
 274 53 338 68 338 115 c 0
243 383 m 0
 303 383 392 330 392 284 c 2
 392 -1 l 1
 338 -1 l 1
 338 23 l 1
 312 7 277 -1 240 -1 c 0
 158 -1 88 44 88 113 c 0
 88 183 159 229 237 229 c 0
 274 229 310 220 338 204 c 1
 338 280 l 1
 324 299 278 329 243 329 c 0
 186 329 148 294 145 294 c 2
 114 333 l 1
 114 333 163 383 243 383 c 0
EndSplineSet
Validated: 1
EndChar

StartChar: x
Encoding: 119 120 17
Width: 480
VWidth: 833
Flags: W
HStem: 148 86<224.415 254.141> 362 20G<75 143 339 405>
VStem: 75 68<0 34.5589 347.441 382> 339 66<2 34.7241>
LayerCount: 2
Fore
SplineSet
75 382 m 1
 143 382 l 1
 143 378 236 234 239 234 c 0
 242 234 339 376 339 380 c 1
 405 380 l 1
 402 372 280 191 280 191 c 1
 280 191 405 5 405 2 c 1
 339 2 l 1
 339 6 242 148 239 148 c 0
 236 148 143 4 143 0 c 1
 75 0 l 1
 75 3 195 191 195 191 c 1
 195 191 75 379 75 382 c 1
EndSplineSet
Validated: 1
EndChar

StartChar: y
Encoding: 120 121 18
Width: 480
VWidth: 833
Flags: HW
HStem: 360 20G<78 142 331.422 402>
VStem: 78 64<309.859 380>
LayerCount: 2
Fore
SplineSet
200 0 m 1
 196 5 78 369 78 380 c 1
 142 380 l 1
 142 371 232 93 239 79 c 1
 338 380 l 1
 402 380 l 1
 402 369 232 -144 224 -167 c 0
 150 -167 l 1
 154 -153 198 -11 200 0 c 1
EndSplineSet
Validated: 1
EndChar

StartChar: u
Encoding: 116 117 19
Width: 480
VWidth: 833
Flags: HW
HStem: 0 21G<85 139 338 392> 0 21G<85 139 338 392> 326 54<163.562 322.049>
VStem: 85 54<0 302.31 354 383> 338 54<0 306.551>
LayerCount: 2
Fore
SplineSet
393 0 m 5xb8
 339 0 l 5
 339 29 l 5
 307 12 270 3 237 3 c 7
 170 3 87 33 87 104 c 6
 87 383 l 5
 141 383 l 5
 141 104 l 6
 141 69 208 57 237 57 c 7
 285 57 339 87 339 104 c 6
 339 383 l 5
 393 383 l 5
 393 0 l 5xb8
EndSplineSet
Validated: 1
EndChar

StartChar: l
Encoding: 107 108 20
Width: 480
VWidth: 833
Flags: HW
HStem: 0 50<275.209 348.138> 619 55<123.226 220.384>
VStem: 221 54<50.0044 618.272>
LayerCount: 2
Fore
SplineSet
278 0 m 4
 259 0 221 9 221 49 c 7
 221 267 221 609 221 609 c 6
 221 622 211 619 202 619 c 4
 184 619 87 586 87 586 c 5
 73 636 l 5
 137 657 185 674 218 674 c 4
 256 674 275 658 275 612 c 4
 275 419 275 109 275 61 c 4
 275 56 280 50 292 50 c 4
 303 50 327 65 389 87 c 5
 407 35 l 5
 311 0 310 0 278 0 c 4
EndSplineSet
Validated: 1
EndChar

StartChar: r
Encoding: 113 114 21
Width: 480
VWidth: 833
Flags: HW
HStem: 1 21G<86 140> 1 21G<86 140> 326 54<203.268 318.754>
VStem: 86 54<1 252.397 316 380> 342 52<271 302.922>
LayerCount: 2
Fore
SplineSet
86 380 m 1xb8
 140 380 l 1
 140 316 l 1
 176 360 211 380 252 380 c 3
 323 380 394 319 394 271 c 0
 342 271 l 3
 342 294 300 326 253 326 c 3
 201 326 140 247 140 179 c 1
 140 1 l 1
 86 1 l 1
 86 380 l 1xb8
EndSplineSet
Validated: 1
EndChar

StartChar: m
Encoding: 108 109 22
Width: 480
VWidth: 833
Flags: HW
LayerCount: 2
Fore
SplineSet
339 388 m 4
 403 388 462 323 462 291 c 4
 462 284 462 0 462 0 c 5
 408 0 l 5
 408 0 408 279 408 286 c 5
 387 311 359 326 337 326 c 4
 303 326 276 298 265 286 c 5
 265 279 265 0 265 0 c 5
 211 0 l 5
 211 0 211 278 211 285 c 4
 207 298 177 326 148 326 c 4
 111 326 86 298 74 286 c 5
 74 279 74 0 74 0 c 5
 18 0 l 5
 18 0 18 381 18 388 c 5
 68 388 l 5
 68 381 68 361 68 361 c 5
 81 371 116 388 150 388 c 4
 205 388 239 342 239 342 c 4
 240 342 278 388 339 388 c 4
EndSplineSet
Validated: 1
EndChar

StartChar: t
Encoding: 115 116 23
Width: 480
VWidth: 833
Flags: HW
HStem: 0 57<270.605 396> 322 63<84 205 267 392>
VStem: 205 62<62.8471 322 385 649>
LayerCount: 2
Fore
SplineSet
205 115 m 7
 205 195 205 322 205 322 c 5
 84 322 l 5
 84 385 l 5
 205 385 l 5
 205 649 l 5
 267 649 l 5
 267 385 l 5
 392 385 l 5
 392 322 l 5
 267 322 l 5
 267 118 l 7
 267 72 276 57 312 57 c 7
 336 57 377 57 396 57 c 4
 396 0 l 5
 276 0 l 7
 217 0 205 20 205 115 c 7
EndSplineSet
Validated: 1
EndChar

StartChar: f
Encoding: 101 102 24
Width: 480
VWidth: 833
Flags: HW
HStem: 309 65<75 157 219 302> 591 64<234.935 320.484>
VStem: 157 62<3 309 374 576.329> 341 64<476 571.657>
LayerCount: 2
Fore
SplineSet
405 476 m 5
 341 476 l 5
 341 477 l 6
 341 526 338 591 273 591 c 4
 219 591 219 521 219 473 c 6
 219 374 l 5
 302 374 l 5
 302 309 l 5
 219 309 l 5
 219 1 l 5
 157 1 l 5
 157 309 l 5
 75 309 l 5
 75 374 l 5
 157 374 l 5
 157 468 l 6
 157 563 193 655 273 655 c 4
 365 655 405 573 405 476 c 5
EndSplineSet
Validated: 1
EndChar

StartChar: k
Encoding: 106 107 25
Width: 480
VWidth: 833
Flags: HW
VStem: 76 64<20 145.916 146 171.154 218 666.538> 326 61<20 65.3335>
LayerCount: 2
Fore
SplineSet
86 650 m 5
 140 650 l 5
 140 204 l 5
 321 389 l 5
 361 351 l 5
 253 241 l 5
 394 0 l 5
 331 0 l 6
 214 200 l 5
 140 126 l 5
 140 0 l 5
 86 0 l 5
 86 650 l 5
EndSplineSet
Validated: 1
EndChar

StartChar: z
Encoding: 121 122 26
Width: 480
VWidth: 833
Flags: HW
LayerCount: 2
Fore
SplineSet
396 305 m 5
 168 57 l 5
 396 57 l 5
 396 0 l 5
 84 0 l 5
 84 63 l 5
 328 311 l 5
 84 311 l 5
 84 365 l 5
 396 365 l 5
 396 305 l 5
EndSplineSet
Validated: 1
EndChar

StartChar: H
Encoding: 71 72 27
Width: 480
VWidth: 833
Flags: HW
LayerCount: 2
Fore
SplineSet
148 368 m 5
 332 368 l 5
 332 656 l 1
 398 656 l 1
 398 3 l 1
 332 3 l 1
 332 323 l 5
 148 323 l 5
 148 3 l 1
 82 3 l 1
 82 656 l 1
 148 656 l 1
 148 368 l 5
EndSplineSet
Validated: 1
EndChar

StartChar: O
Encoding: 78 79 28
Width: 480
VWidth: 833
Flags: HW
HStem: 1 77<189.298 291.29> 589 68<198.591 291.274>
VStem: 82 65<150.065 507.883> 334 64<140.659 518.915>
LayerCount: 2
Fore
SplineSet
398 329 m 4
 398 120 340 1 239 1 c 4
 143 1 82 130 82 329 c 4
 82 531 146 658 249 658 c 4
 343 658 398 535 398 329 c 4
147 329 m 6
 147 152 173 78 237 78 c 4
 309 78 334 143 334 329 c 4
 334 516 309 589 246 589 c 4
 179 589 147 504 147 329 c 6
EndSplineSet
Validated: 1
EndChar

StartChar: A
Encoding: 64 65 29
Width: 480
VWidth: 833
Flags: HW
HStem: 0 21G<80 142.5 340 400> 168 50<186 291> 642 20G<205.103 263.26>
VStem: 80 320
LayerCount: 2
Fore
SplineSet
209 662 m 5
 259 662 l 5
 400 0 l 5
 340 0 l 6
 340 0 323 66 302 168 c 5
 177 168 l 5
 158 65 143 0 142 0 c 6
 80 0 l 5
 209 662 l 5
291 217 m 5
 272 307 251 437 235 514 c 5
 221 437 203 308 186 218 c 5
 291 217 l 5
EndSplineSet
Validated: 1
EndChar

StartChar: E
Encoding: 68 69 30
Width: 480
VWidth: 833
Flags: HW
VStem: 86 311
LayerCount: 2
Fore
SplineSet
151 592 m 5
 151 354 l 5
 383 354 l 5
 383 299 l 5
 151 299 l 5
 151 57 l 5
 395 57 l 5
 395 1 l 5
 85 1 l 5
 85 658 l 5
 395 658 l 5
 395 592 l 5
 151 592 l 5
EndSplineSet
Validated: 1
EndChar

StartChar: S
Encoding: 82 83 31
Width: 480
VWidth: 833
Flags: HW
HStem: 1 77<205.776 304.594> 597 61<183.364 278.098>
VStem: 84 73<447.468 569.576> 92 80<116.998 179> 317 70<499 550.807> 327 69<99.6968 224.185>
LayerCount: 2
Fore
SplineSet
84 504 m 0xe4
 84 591 144 658 223 658 c 0
 302 658 363 599 387 499 c 1
 317 499 l 1
 301 563 270 597 226 597 c 0
 189 597 157 554 157 505 c 0xe8
 157 384 396 352 396 170 c 0
 396 75 332 1 249 1 c 0
 169 1 110 68 92 179 c 1
 172 179 l 1xd4
 182 114 212 78 255 78 c 0
 297 78 327 112 327 160 c 0
 327 295 84 354 84 504 c 0xe4
EndSplineSet
Validated: 1
EndChar

StartChar: I
Encoding: 72 73 32
Width: 480
VWidth: 833
Flags: HW
HStem: 1 85<85 202 285 397> 585 73<84 201 284 396>
VStem: 202 83<86 585>
LayerCount: 2
Fore
SplineSet
395 592 m 1
 274 592 l 1
 274 77 l 1
 396 77 l 1
 396 1 l 1
 85 1 l 1
 85 77 l 1
 209 77 l 5
 209 590 l 5
 84 592 l 1
 84 658 l 1
 395 658 l 1
 395 592 l 1
EndSplineSet
Validated: 1
EndChar

StartChar: N
Encoding: 77 78 33
Width: 480
VWidth: 833
Flags: HW
HStem: 0 21G<82 148 327.398 398> 0 21G<82 148 327.398 398>
VStem: 82 66<0 492> 335 63<159 656>
LayerCount: 2
Fore
SplineSet
148 658 m 1xb0
 335 159 l 1
 335 658 l 1
 398 658 l 1
 398 0 l 1
 335 0 l 1
 148 492 l 1
 148 0 l 1
 82 0 l 1
 82 658 l 1
 148 658 l 1xb0
EndSplineSet
Validated: 1
EndChar

StartChar: L
Encoding: 75 76 34
Width: 480
VWidth: 833
Flags: HW
HStem: 0 64<150 396> 637 20G<84 150>
VStem: 84 66<64 656>
LayerCount: 2
Fore
SplineSet
396 65 m 1
 396 0 l 1
 84 0 l 1
 84 658 l 1
 150 658 l 1
 150 64 l 1
 396 65 l 1
EndSplineSet
Validated: 1
EndChar

StartChar: Z
Encoding: 89 90 35
Width: 480
VWidth: 833
Flags: HW
HStem: 0 67<152 396> 592 65<84 328>
VStem: 84 312<0 67 592 657>
LayerCount: 2
Fore
SplineSet
84 75 m 1
 328 592 l 1
 84 592 l 1
 84 658 l 1
 396 658 l 1
 396 584 l 1
 152 67 l 1
 396 67 l 1
 396 0 l 1
 84 0 l 1
 84 75 l 1
EndSplineSet
Validated: 1
EndChar

StartChar: V
Encoding: 85 86 36
Width: 480
VWidth: 833
Flags: HW
HStem: 0 21G<204.225 271.896> 0 21G<204.225 271.896> 637 20G<84 154.069 325.79 396>
VStem: 84 67<619.911 657> 329 67<621.07 657>
LayerCount: 2
Fore
SplineSet
151 658 m 1xb8
 238 90 l 1
 329 658 l 1
 396 658 l 1
 268 0 l 1
 208 0 l 1
 84 658 l 1
 151 658 l 1xb8
EndSplineSet
Validated: 1
EndChar

StartChar: P
Encoding: 79 80 37
Width: 480
VWidth: 833
Flags: HW
HStem: 1 21G<82 148> 1 21G<82 148> 303 64<150 283.966> 592 63<150 285.447>
VStem: 82 66<1 303 367 592> 334 64<415.935 544.461>
LayerCount: 2
Fore
SplineSet
150 365 m 5x3c
 230 365 l 6
 283 365 334 404 334 482 c 7
 334 553 283 592 230 592 c 6
 150 592 l 5
 150 365 l 5x3c
148 303 m 5
 148 1 l 5
 82 1 l 5xbc
 82 655 l 5
 230 655 l 6
 317 655 398 572 398 482 c 7
 398 383 323 303 230 303 c 6
 148 303 l 5
EndSplineSet
Validated: 1
EndChar

StartChar: T
Encoding: 83 84 38
Width: 480
VWidth: 833
Flags: HW
HStem: 0 21G<208 278> 0 21G<208 278> 591 63<84 208 278 396>
VStem: 208 70<0 591>
LayerCount: 2
Fore
SplineSet
396 591 m 1xb0
 278 591 l 1
 278 0 l 1
 208 0 l 1
 208 591 l 1
 84 591 l 1
 84 654 l 1
 396 654 l 1
 396 591 l 1xb0
EndSplineSet
Validated: 1
EndChar

StartChar: M
Encoding: 76 77 39
Width: 480
VWidth: 833
Flags: HW
LayerCount: 2
Fore
SplineSet
401 657 m 5
 401 -1 l 5
 338 -1 l 5
 338 435 l 5
 240 189 l 5
 146 435 l 5
 146 -1 l 5
 79 -1 l 5
 79 657 l 5
 146 657 l 5
 240 349 l 5
 338 657 l 5
 401 657 l 5
EndSplineSet
Validated: 1
EndChar

StartChar: F
Encoding: 69 70 40
Width: 480
VWidth: 833
Flags: HW
LayerCount: 2
Fore
SplineSet
150 2 m 5
 84 2 l 5
 84 656 l 5
 396 657 l 5
 396 598 l 5
 150 597 l 5
 150 356 l 5
 290 356 l 5
 288 301 l 5
 150 301 l 5
 150 2 l 5
EndSplineSet
Validated: 1
EndChar

StartChar: X
Encoding: 87 88 41
Width: 480
VWidth: 833
Flags: HW
HStem: 0 21G<43 121.118 358.294 437> 0 21G<43 121.118 358.294 437> 637 20G<46 120.191 361.074 434>
LayerCount: 2
Fore
SplineSet
46 658 m 5xa0
 111 658 l 5
 236 385 l 5
 371 658 l 5
 434 658 l 5
 266 334 l 5
 437 0 l 5
 368 0 l 5
 236 272 l 5
 112 0 l 5
 43 0 l 5
 207 334 l 5
 46 658 l 5xa0
EndSplineSet
Validated: 1
EndChar

StartChar: Y
Encoding: 88 89 42
Width: 480
VWidth: 833
Flags: HW
HStem: 0 21G<206 269> 0 21G<206 269> 637 20G<48 118.236 362.109 432>
VStem: 206 63<0 336>
LayerCount: 2
Fore
SplineSet
48 658 m 1xb0
 109 658 l 1
 236 382 l 1
 372 658 l 1
 432 658 l 1
 269 336 l 1
 269 0 l 1
 206 0 l 1
 206 336 l 1
 48 658 l 1xb0
EndSplineSet
Validated: 1
EndChar

StartChar: Q
Encoding: 80 81 43
Width: 480
VWidth: 833
Flags: HW
LayerCount: 2
Fore
SplineSet
248 658 m 0
 342 658 398 537 398 332 c 0
 398 211 392 177 354 82 c 1
 397 0 l 1
 333 0 l 1
 315 29 l 1
 287 9 265 0 240 0 c 0
 144 0 82 130 82 332 c 0
 82 534 145 658 248 658 c 0
240 78 m 0
 255 78 262 80 280 89 c 1
 206 222 l 1
 266 223 l 1
 314 136 l 1
 331 194 334 224 334 332 c 0
 334 519 310 588 246 588 c 0
 179 588 146 503 146 332 c 0
 146 151 173 78 238 78 c 0
 239 78 239 78 240 78 c 0
EndSplineSet
Validated: 1
EndChar

StartChar: U
Encoding: 84 85 44
Width: 480
VWidth: 833
Flags: HW
HStem: 1 77<183.99 295.912> 638 19G<80 150 330 400>
VStem: 80 66<130.915 657> 336 64<131.796 658>
LayerCount: 2
Fore
SplineSet
336 342 m 0
 336 429 330 574 330 658 c 1
 400 658 l 1
 400 281 l 2
 400 77 356 1 238 1 c 0
 122 1 80 75 80 281 c 2
 80 658 l 1
 150 658 l 1
 150 534 146 415 146 342 c 0
 146 134 166 78 240 78 c 0
 314 78 336 138 336 342 c 0
EndSplineSet
Validated: 1
EndChar

StartChar: R
Encoding: 81 82 45
Width: 480
VWidth: 833
Flags: HW
HStem: 0 21G<67 127 339.871 413> 0 21G<67 127 339.871 413> 303 62<129 239> 592 63<129 275.844>
VStem: 67 60<0 303 365 592> 319 64<409.613 548.622>
LayerCount: 2
Fore
SplineSet
129 365 m 1x3c
 212 365 l 3
 275 365 319 414 319 485 c 3
 319 544 271 592 212 592 c 27
 182 592 129 592 129 592 c 1
 129 365 l 1x3c
291 322 m 1
 413 0 l 1
 347 0 l 1
 239 303 l 1
 212 303 l 0
 127 303 l 1
 127 0 l 1
 67 0 l 1xbc
 67 655 l 1
 212 655 l 3
 300 655 383 572 383 485 c 3
 383 415 347 351 291 322 c 1
EndSplineSet
Validated: 1
EndChar

StartChar: D
Encoding: 67 68 46
Width: 480
VWidth: 833
Flags: HW
HStem: 1 60<145 249.802> 592 60<145 251.891>
VStem: 85 60<61 592> 335 60<183.419 478.189>
LayerCount: 2
Fore
SplineSet
145 61 m 1
 192 61 l 2
 284 61 335 187 335 338 c 0
 335 477 281 592 192 592 c 2
 145 592 l 1
 145 61 l 1
192 1 m 2
 85 1 l 1
 85 652 l 1
 126 652 126 652 141 652 c 0
 142 652 190 652 192 652 c 0
 305 652 395 534 395 338 c 0
 395 212 365 109 306 50 c 0
 275 19 236 1 192 1 c 2
EndSplineSet
Validated: 1
EndChar

StartChar: K
Encoding: 74 75 47
Width: 480
VWidth: 833
Flags: HW
HStem: 0 21G<83 150 301.818 395> 0 21G<83 150 301.818 395> 637 20G<83 150 303.566 397>
VStem: 83 67<0 220 438 657>
LayerCount: 2
Fore
SplineSet
83 658 m 1xb0
 150 658 l 1
 150 438 l 1
 319 658 l 1
 397 658 l 1
 157 330 l 1
 395 0 l 1
 317 0 l 1
 150 220 l 1
 150 0 l 1
 83 0 l 1
 83 658 l 1xb0
EndSplineSet
Validated: 1
EndChar

StartChar: B
Encoding: 65 66 48
Width: 480
VWidth: 833
Flags: HW
HStem: 0 50<152 291.644> 287 74<152 273.491> 604 57<152 268.921>
VStem: 92 60<50 287 361 604> 298 64<384.069 574.528> 336 63<91.636 241.349>
LayerCount: 2
Fore
SplineSet
86 661 m 5xf4
 208 661 l 3
 302 661 357 595 357 480 c 3xf8
 357 393 353 373 324 328 c 1
 363 304 394 235 394 174 c 3
 394 44 311 0 213 0 c 27
 164 0 86 0 86 0 c 5
 86 661 l 5xf4
146 604 m 5
 146 361 l 5
 217 361 l 3
 270 361 293 396 293 480 c 3
 293 566 267 604 208 604 c 27
 184 604 146 604 146 604 c 5
146 287 m 5
 146 50 l 5
 213 50 l 3
 289 50 331 91 331 174 c 3xf4
 331 238 283 287 219 287 c 27
 191 287 146 287 146 287 c 5
EndSplineSet
Validated: 1
EndChar

StartChar: C
Encoding: 66 67 49
Width: 480
VWidth: 833
Flags: HW
HStem: 6 60<193.14 301.861> 594 57<198.197 303.295>
VStem: 81 50<157.56 497.438> 337 62<100.952 180 495 557.77>
LayerCount: 2
Fore
SplineSet
275 6 m 6
 225 6 l 6
 121 6 81 96 81 328 c 6
 81 385 l 6
 81 553 135 651 227 651 c 6
 277 651 l 6
 333 651 393 570 393 495 c 5
 331 495 l 5
 331 555 299 594 250 594 c 4
 178 594 131 505 131 351 c 4
 131 152 169 66 248 66 c 4
 302 66 337 111 337 180 c 5
 399 180 l 5
 399 74 350 6 275 6 c 6
EndSplineSet
Validated: 1
EndChar

StartChar: G
Encoding: 70 71 50
Width: 480
VWidth: 833
Flags: HW
HStem: 2 60<185.197 289.714> 237 60<274 335> 588 60<185.758 306.24>
VStem: 80 60<120.112 524.595> 274 122<238.387 297> 328 60<478 566.165> 335 61<117.528 237>
LayerCount: 2
Fore
SplineSet
82 334 m 0xf8
 82 440 83 648 234 648 c 0
 343 648 390 597 390 478 c 1
 330 478 l 1xf4
 330 558 312 588 234 588 c 0
 154 588 142 470 142 334 c 0
 142 163 152 62 240 62 c 0
 322 62 337 177 337 237 c 1xf2
 276 237 l 1
 276 297 l 1
 398 297 l 1
 398 267 l 2
 398 207 395 2 240 2 c 0
 87 2 82 184 82 308 c 0
 82 317 82 326 82 334 c 0xf8
EndSplineSet
Validated: 1
EndChar

StartChar: J
Encoding: 73 74 51
Width: 480
VWidth: 833
Flags: HW
HStem: 1 73<174.82 302.144> 638 20G<340 399>
VStem: 81 62<109.422 200> 340 59<119.698 658>
LayerCount: 2
Fore
SplineSet
143 200 m 3
 143 117 167 74 241 74 c 0
 333 74 340 146 340 342 c 0
 340 429 340 574 340 658 c 1
 399 658 l 1
 399 281 l 2
 399 75 357 1 239 1 c 0
 139 1 81 59 81 200 c 0
 143 200 l 3
EndSplineSet
Validated: 1
EndChar

StartChar: W
Encoding: 86 87 52
Width: 480
VWidth: 833
Flags: HW
HStem: 0 21G<109.933 178.788 287.676 364.249> 0 21G<109.933 178.788 287.676 364.249> 638 20G<44 114.988 370.231 436>
VStem: 112 62<0 29.2419> 292 70<0 32.375> 373 63<607.433 658>
LayerCount: 2
Fore
SplineSet
112 658 m 5xbc
 161 175 l 5
 238 484 l 5
 306 174 l 5
 373 658 l 5
 436 658 l 5
 362 0 l 5
 292 0 l 5
 236 259 l 5
 174 0 l 5
 112 0 l 5
 44 658 l 5
 112 658 l 5xbc
EndSplineSet
Validated: 1
EndChar

StartChar: parenleft
Encoding: 39 40 53
Width: 480
VWidth: 833
Flags: W
HStem: -25 53<271.488 354> 623 66<263.883 354>
VStem: 126 58<152.945 509.56>
LayerCount: 2
Fore
SplineSet
184 332 m 0
 184 210 204 136 232 92 c 0
 267 36 314 28 342 28 c 2
 354 28 l 1
 354 -25 l 1
 304 -25 l 2
 269 -25 219 -12 180 52 c 0
 149 104 126 190 126 332 c 0
 126 682 271 689 304 689 c 2
 354 689 l 1
 354 623 l 1
 342 623 l 2
 278 623 184 604 184 332 c 0
EndSplineSet
Validated: 1
EndChar

StartChar: parenright
Encoding: 40 41 54
Width: 480
VWidth: 833
Flags: W
HStem: -25 53<126 206.466> 623 66<126 214.75>
VStem: 296 58<153.259 508.156>
LayerCount: 2
Fore
SplineSet
296 332 m 0
 296 604 200 623 136 623 c 2
 126 623 l 1
 126 689 l 1
 174 689 l 2
 209 689 259 677 298 612 c 0
 329 560 354 473 354 332 c 0
 354 62 267 -25 174 -25 c 2
 126 -25 l 1
 126 28 l 1
 136 28 l 2
 286 28 296 243 296 332 c 0
EndSplineSet
Validated: 1
EndChar

StartChar: bracketleft
Encoding: 90 91 55
Width: 480
VWidth: 833
Flags: W
HStem: -69 62<197.5 354> 679 66<203.312 354>
VStem: 126 52<117.529 549.424>
LayerCount: 2
Fore
SplineSet
234 675 m 0
 182 675 178 595 178 332 c 0
 178 298 178 267 178 240 c 0
 178 170 178 119 182 83 c 0
 187 21 201 -8 234 -8 c 0
 301 -8 314 -7 342 -7 c 2
 354 -7 l 1
 354 -69 l 1
 304 -69 l 2
 288 -69 277 -69 262 -70 c 0
 241 -71 214 -72 168 -72 c 0
 163 -72 160 -71 156 -65 c 0
 130 -32 126 110 126 332 c 2
 126 365 l 2
 126 480 126 561 128 618 c 0
 132 737 145 742 168 742 c 2
 304 745 l 1
 354 745 l 1
 354 679 l 1
 342 679 l 2
 341 679 241 675 234 675 c 0
EndSplineSet
Validated: 1
EndChar

StartChar: bracketright
Encoding: 92 93 56
Width: 480
VWidth: 833
Flags: HW
LayerCount: 2
Fore
SplineSet
246 -8 m 0
 279 -8 291 21 296 83 c 0
 301 134 302 213 302 332 c 0
 302 595 298 675 246 675 c 0
 239 675 137 679 136 679 c 2
 126 679 l 1
 126 745 l 1
 174 745 l 1
 174 745 174 745 310 742 c 0
 318 742 324 741 328 739 c 0
 354 724 354 629 354 365 c 2
 354 332 l 2
 354 110 350 -32 324 -65 c 0
 320 -71 315 -72 310 -72 c 0
 264 -72 239 -71 218 -70 c 0
 203 -69 190 -69 174 -69 c 2
 126 -69 l 1
 126 -7 l 1
 136 -7 l 2
 137 -7 206 -8 246 -8 c 0
EndSplineSet
Validated: 1
EndChar

StartChar: backslash
Encoding: 91 92 57
Width: 480
VWidth: 833
Flags: HW
LayerCount: 2
Fore
SplineSet
157 658 m 1
 399 11 l 1
 321 11 l 1
 81 658 l 1
 157 658 l 1
EndSplineSet
Validated: 1
EndChar

StartChar: bar
Encoding: 123 124 58
Width: 480
VWidth: 833
Flags: HW
VStem: 212 56<-76 742>
LayerCount: 2
Fore
SplineSet
268 747 m 5
 268 -71 l 5
 212 -71 l 5
 212 747 l 5
 268 747 l 5
EndSplineSet
Validated: 1
Substitution2: "end_double_arrows-1" double_bar_end
Substitution2: "start_double_arrows-1" double_bar_start
Substitution2: "end_arrows_1" bar_right
Substitution2: "mid_arrows-1" bar_mid
Substitution2: "start_arrows-1" bar_left
EndChar

StartChar: slash
Encoding: 46 47 59
Width: 480
VWidth: 833
Flags: W
VStem: 74 332
LayerCount: 2
Fore
SplineSet
74 6 m 1
 320 663 l 1
 406 663 l 1
 164 6 l 1
 74 6 l 1
EndSplineSet
Validated: 1
EndChar

StartChar: exclam
Encoding: 32 33 60
Width: 480
VWidth: 833
Flags: W
HStem: 9 139<193 288.25> 638 20G<204 280>
VStem: 171 138<31.5947 124.882> 204 76<236 658>
LayerCount: 2
Fore
SplineSet
171 78 m 0xe0
 171 113 206 148 242 148 c 0
 276 148 309 114 309 79 c 0
 309 43 276 9 242 9 c 0
 206 9 171 43 171 78 c 0xe0
280 658 m 1xd0
 280 236 l 1
 204 236 l 1
 204 658 l 1
 280 658 l 1xd0
EndSplineSet
Validated: 1
EndChar

StartChar: one
Encoding: 48 49 61
AltUni2: 0000b9.ffffffff.0
Width: 480
VWidth: 833
Flags: HW
HStem: 0 57<84 208 278 396> 642 20G<163.455 278>
VStem: 208 70<57 586>
LayerCount: 2
Fore
SplineSet
208 586 m 5
 84 517 l 5
 84 596 l 5
 198 662 l 5
 278 662 l 5
 278 57 l 5
 396 57 l 5
 396 0 l 5
 84 0 l 5
 84 57 l 5
 208 57 l 5
 208 586 l 5
EndSplineSet
Validated: 1
EndChar

StartChar: two
Encoding: 49 50 62
AltUni2: 0000b2.ffffffff.0
Width: 480
VWidth: 833
Flags: HW
HStem: 1 60<187 401> 601 60<188.161 291.809>
VStem: 336 60<369.153 550.192>
LayerCount: 2
Fore
SplineSet
119 31 m 2
 119 150 336 287 336 464 c 0
 336 538 294 601 245 601 c 0
 213 601 202 595 153 548 c 0
 141 536 130 521 119 510 c 1
 95 536 79 554 79 554 c 0
 92 568 125 605 125 605 c 0
 165 645 199 661 245 661 c 0
 329 661 396 574 396 464 c 0
 396 289 226 154 187 61 c 1
 401 61 l 1
 401 1 l 1
 119 1 l 1
 119 31 l 2
EndSplineSet
Validated: 1
EndChar

StartChar: three
Encoding: 50 51 63
AltUni2: 0000b3.ffffffff.0
Width: 480
VWidth: 833
Flags: HW
HStem: -2 60<185.26 295.649> 597 60<182.833 293.669>
VStem: 89 60<95.4527 138 537 564.334> 270 60<261.932 385.172> 331 60<93.7914 214.068 433.828 558.175>
LayerCount: 2
Fore
SplineSet
331 495 m 0
 331 549 291 597 236 597 c 0
 195 597 156 556 154 537 c 1
 94 537 l 1
 94 588 165 658 236 658 c 0
 323 658 391 583 391 495 c 0
 391 413 331 384 331 324 c 0
 331 263 391 233 391 151 c 0
 391 66 321 -2 235 -2 c 0
 154 -2 89 82 89 138 c 1
 149 138 l 1
 149 115 189 58 235 58 c 0
 287 58 331 98 331 151 c 0
 331 212 270 241 270 324 c 0
 270 406 331 435 331 495 c 0
EndSplineSet
Validated: 1
EndChar

StartChar: four
Encoding: 51 52 64
Width: 480
VWidth: 833
Flags: HW
HStem: 0 21G<247 307> 0 21G<247 307> 210 60<158 247 307 394>
VStem: 247 60<0 210 270 502>
LayerCount: 2
Fore
SplineSet
247 270 m 5x30
 247 502 l 5
 158 270 l 5
 247 270 l 5x30
247 210 m 5
 114 210 l 5
 86 251 l 5
 247 668 l 5
 307 668 l 5
 307 270 l 5
 394 270 l 5
 394 210 l 5
 307 210 l 5
 307 0 l 5
 247 0 l 5xb0
 247 210 l 5
EndSplineSet
Validated: 1
EndChar

StartChar: five
Encoding: 52 53 65
Width: 480
VWidth: 833
Flags: HW
HStem: 0 60<176.871 283.329> 340 60<184.329 286.703> 588 60<184 359>
VStem: 126 58<399 588> 332 60<116.443 290.915>
LayerCount: 2
Fore
SplineSet
126 340 m 1
 126 648 l 1
 359 648 l 1
 359 588 l 1
 184 588 l 1
 184 399 l 1
 191 400 199 400 208 400 c 0
 272 400 392 377 392 199 c 0
 392 97 325 0 228 0 c 3
 162 0 115 54 88 90 c 1
 136 126 l 0
 164 89 194 60 228 60 c 3
 294 60 332 137 332 199 c 0
 332 298 290 340 209 340 c 0
 178 340 136 340 126 340 c 1
EndSplineSet
Validated: 1
EndChar

StartChar: seven
Encoding: 54 55 66
Width: 480
VWidth: 833
Flags: W
HStem: 0 21G<95 166.172> 582 65<89 309>
VStem: 89 302<627.478 647>
LayerCount: 2
Fore
SplineSet
89 647 m 5
 391 647 l 5
 159 0 l 5
 95 0 l 5
 309 582 l 5
 89 582 l 5
 89 647 l 5
EndSplineSet
Validated: 1
EndChar

StartChar: eight
Encoding: 55 56 67
Width: 480
VWidth: 833
Flags: W
HStem: 1 88<184.522 295.255> 303 126<191.067 276.572> 572 74<192.428 275.432>
VStem: 82 64<128.687 262.937> 110 64<446.181 553.751> 294 66<445.368 553.299> 334 64<129.658 262.997>
LayerCount: 2
Fore
SplineSet
240 303 m 4xf2
 192 303 146 257 146 195 c 4
 146 131 194 89 240 89 c 4
 284 89 334 130 334 195 c 4
 334 258 287 303 240 303 c 4xf2
234 572 m 4
 203 572 174 540 174 499 c 4
 174 456 205 429 234 429 c 4
 263 429 294 455 294 499 c 4xec
 294 543 264 572 234 572 c 4
234 646 m 4
 304 646 360 587 360 499 c 4xec
 360 448 340 405 312 378 c 6
 304 369 l 5
 314 362 l 5
 364 333 398 274 398 195 c 4
 398 82 331 1 240 1 c 4
 150 1 82 81 82 195 c 4xf2
 82 270 112 329 158 359 c 6
 170 366 l 5
 160 374 l 6
 130 401 110 444 110 499 c 4
 110 589 161 646 234 646 c 4
EndSplineSet
Validated: 1
EndChar

StartChar: zero
Encoding: 47 48 68
Width: 480
VWidth: 833
Flags: HW
HStem: 0 57<191.498 293.297> 595 67<194.594 292.829>
VStem: 82 64<224.618 520.72> 334 64<135.4 452.417>
LayerCount: 2
Fore
SplineSet
398 335 m 0
 398 122 352 0 240 0 c 0
 139 0 82 121 82 335 c 0
 82 537 135 662 240 662 c 0
 343 662 398 548 398 335 c 0
314 529 m 3
 314 549 294 595 242 595 c 0
 241 595 241 595 240 595 c 0
 175 593 146 512 146 335 c 0
 146 293 146 302 150 223 c 1
 314 529 l 3
332 454 m 1
 165 132 l 3
 165 116 186 57 240 57 c 0
 314 57 334 116 334 335 c 0
 334 417 334 421 332 454 c 1
EndSplineSet
Validated: 1
EndChar

StartChar: nine
Encoding: 56 57 69
Width: 480
VWidth: 833
Flags: HW
LayerCount: 2
Fore
SplineSet
-949 848 m 1054
191 1 m 5
 180 9 159 24 137 41 c 5
 246 170 299 293 299 294 c 6
 281 303 l 5
 276 295 264 281 243 281 c 4
 242 281 240 281 239 281 c 4
 190 285 87 322 87 448 c 4
 87 561 154 644 239 644 c 4
 323 644 393 562 393 448 c 4
 393 282 315 163 191 1 c 5
239 341 m 4
 288 341 329 386 329 448 c 4
 329 511 285 554 239 554 c 4
 193 554 153 512 153 448 c 4
 153 386 191 341 239 341 c 4
EndSplineSet
Validated: 1
EndChar

StartChar: six
Encoding: 53 54 70
Width: 480
VWidth: 833
Flags: W
HStem: 0 88<184.522 295.255> 302 60<207.146 294.817>
VStem: 82 64<129.125 259.233> 334 64<128.658 261.985>
LayerCount: 2
Fore
SplineSet
240 302 m 4
 192 302 146 256 146 194 c 4
 146 130 194 88 240 88 c 4
 284 88 334 129 334 194 c 4
 334 257 287 302 240 302 c 4
252 597 m 4
 263 612 276 627 290 644 c 5
 302 636 327 618 350 601 c 5
 236 472 182 350 182 349 c 6
 170 325 l 5
 203 338 202 338 214 345 c 4
 228 354 240 361 258 362 c 6
 264 362 l 6
 330 362 398 302 398 194 c 4
 398 81 331 0 240 0 c 4
 150 0 82 80 82 194 c 6
 82 218 l 6
 82 403 143 467 252 597 c 4
EndSplineSet
Validated: 1
EndChar

StartChar: numbersign
Encoding: 34 35 71
Width: 480
VWidth: 833
Flags: HW
HStem: 1 20G<106 165.073 292 352.971> 206 58<0 112 180 301 364 479> 454 58<0 125 196 312 373 479>
VStem: 106 58<1 131.455> 112 63<75.5455 206> 292 60<1 144.2> 312 58<266 453>
LayerCount: 2
Fore
SplineSet
480 265 m 1xea
 480 190 l 1
 397 190 l 1
 397 0 l 1
 325 1 l 1
 325 190 l 1
 158 190 l 1xec
 158 1 l 1
 85 1 l 1xf0
 85 190 l 1
 0 190 l 1
 0 265 l 1
 85 265 l 1
 85 438 l 1
 0 438 l 1
 0 512 l 1
 85 512 l 1
 85 668 l 1
 158 668 l 1
 158 512 l 1
 325 512 l 1
 325 668 l 1
 397 668 l 1
 397 513 l 1
 480 513 l 1
 480 438 l 1
 397 438 l 1
 397 265 l 1
 480 265 l 1xea
158 265 m 1
 325 265 l 1
 325 438 l 1xe2
 158 438 l 1
 158 265 l 1
EndSplineSet
Validated: 1
EndChar

StartChar: dollar
Encoding: 35 36 72
Width: 480
VWidth: 833
Flags: HW
LayerCount: 2
Fore
SplineSet
266 602 m 2
 347 585 379 506 388 476 c 1
 318 476 l 1
 313 490 300 519 274 539 c 2
 258 551 l 1
 258 373 l 1
 328 333 400 289 400 212 c 0
 400 160 370 73 268 62 c 2
 258 61 l 1
 258 10 l 1
 214 10 l 1
 214 63 l 1
 206 65 l 2
 120 86 96 176 90 208 c 1
 166 208 l 1
 169 194 176 166 196 146 c 2
 214 128 l 1
 214 323 l 1
 151 362 80 408 80 476 c 0
 80 537 137 592 206 604 c 1
 214 606 l 1
 214 657 l 1
 258 657 l 1
 258 604 l 1
 266 602 l 2
200 555 m 2
 175 547 152 526 152 492 c 0
 152 460 172 437 198 416 c 2
 214 403 l 1
 214 559 l 1
 200 555 l 2
270 124 m 2
 322 133 330 179 330 200 c 0
 330 207 330 212 330 214 c 0
 329 247 297 267 258 291 c 1
 258 122 l 1
 270 124 l 2
EndSplineSet
Validated: 1
EndChar

StartChar: percent
Encoding: 36 37 73
Width: 480
VWidth: 833
Flags: HW
HStem: 10 65<265.149 356.295> 11 21G<64.5 65.5 140 140> 181 59<265.597 354.625> 425 65<125.778 211.564> 596 59<126.058 210.764>
VStem: 66 50<499.887 586.207> 202 54<84.7694 148.11> 220 56<509.6 587.207> 340 76<606.08 658> 366 50<85.2932 170.241>
LayerCount: 2
Fore
SplineSet
66 542 m 0x7e40
 66 609 108 655 168 655 c 0
 233 655 276 606 276 537 c 0
 276 529 272 527 272 509 c 0
 276 509 340 648 340 658 c 1
 416 658 l 1x7d80
 416 648 234 209 234 209 c 1
 252 228 278 240 310 240 c 0
 374 240 416 194 416 127 c 0
 416 60 375 11 310 11 c 0xbc40
 243 11 202 64 202 132 c 0
 202 138 201 143 202 148 c 0
 202 149 l 0
 198 149 140 21 140 11 c 1
 140 16 122 18 103 18 c 0
 84 18 65 16 64 11 c 1
 67 28 244 457 244 457 c 0
 226 437 200 425 168 425 c 0
 108 425 66 475 66 542 c 0x7e40
220 542 m 0
 220 576 199 596 168 596 c 0
 136 596 116 573 116 542 c 0
 116 511 139 490 168 490 c 0
 197 490 220 508 220 542 c 0
366 127 m 0xbe40
 366 159 341 181 310 181 c 0
 279 181 256 160 256 127 c 0
 256 94 281 75 310 75 c 0
 340 75 366 94 366 127 c 0xbe40
64 11 m 1x7c
 64 11 l 1x7c
EndSplineSet
Validated: 1
EndChar

StartChar: question
Encoding: 62 63 74
Width: 480
VWidth: 833
Flags: HW
LayerCount: 2
Fore
SplineSet
166 78 m 0
 166 113 203 148 238 148 c 0
 273 148 308 114 308 79 c 0
 308 44 273 9 238 9 c 0
 202 9 166 43 166 78 c 0
330 506 m 0
 330 574 300 595 238 595 c 0
 186 595 160 552 152 536 c 1
 86 538 l 1
 94 553 110 578 132 602 c 0
 159 632 195 657 238 657 c 0
 324 657 394 607 394 506 c 0
 394 478 367 450 336 420 c 0
 306 390 270 358 270 316 c 0
 270 279 272 243 272 226 c 1
 200 226 l 1
 201 243 202 279 202 316 c 0
 202 380 330 448 330 506 c 0
EndSplineSet
Validated: 1
EndChar

StartChar: braceleft
Encoding: 122 123 75
Width: 480
VWidth: 833
Flags: HW
HStem: -30 63<293.175 359> 618 76<288.453 359>
VStem: 121 80<307.824 360.907> 199 68<59.2252 276.898 394.383 596.633>
LayerCount: 2
Fore
SplineSet
267 423 m 0xd0
 267 406 199 361 199 332 c 0xe0
 199 310 260 271 267 251 c 1
 267 49 287 33 338 33 c 2
 359 33 l 1
 359 -30 l 1
 304 -30 l 2
 245 -30 199 -21 199 251 c 0xd0
 199 272 135 305 121 331 c 1
 121 332 l 2xe0
 121 356 199 396 199 423 c 0
 199 673 247 694 304 694 c 2
 359 694 l 1
 359 618 l 1
 326 618 l 2
 285 618 267 595 267 423 c 0xd0
EndSplineSet
Validated: 1
EndChar

StartChar: braceright
Encoding: 124 125 76
Width: 480
VWidth: 833
Flags: HW
LayerCount: 2
Fore
SplineSet
277 332 m 4
 277 366 215 403 213 423 c 6
 213 423 l 5
 213 423 l 5
 208 595 195 618 154 618 c 6
 121 618 l 5
 121 694 l 5
 176 694 l 6
 233 694 270 673 279 423 c 4
 279 395 359 357 359 332 c 6
 359 331 l 5
 347 307 281 270 281 251 c 4
 278 130 267 60 253 21 c 4
 236 -24 212 -30 176 -30 c 6
 121 -30 l 5
 121 33 l 5
 140 33 l 6
 191 33 207 50 213 251 c 5
 221 274 277 310 277 332 c 4
EndSplineSet
Validated: 1
EndChar

StartChar: less
Encoding: 59 60 77
Width: 480
VWidth: 833
Flags: W
VStem: 75 330
LayerCount: 2
Fore
SplineSet
405 83 m 1
 405 5 l 1
 75 202 l 1
 405 392 l 1
 405 311 l 1
 178 202 l 1
 405 83 l 1
EndSplineSet
Validated: 1
Substitution2: "end_double_arrows-1" double_less_end
Substitution2: "start_double_arrows-1" double_less_start
Substitution2: "mid_arrows-1" less_mid
Substitution2: "end_arrows_1" less_end
Substitution2: "start_arrows-1" less_start
EndChar

StartChar: greater
Encoding: 61 62 78
Width: 480
VWidth: 833
Flags: W
VStem: 75 330
LayerCount: 2
Fore
SplineSet
75 5 m 1
 75 83 l 1
 302 202 l 1
 75 311 l 1
 75 392 l 1
 405 202 l 1
 75 5 l 1
EndSplineSet
Validated: 1
Substitution2: "end_double_arrows-1" double_greater_end
Substitution2: "start_double_arrows-1" double_greater_start
Substitution2: "mid_arrows-1" greater_mid
Substitution2: "start_arrows-1" greater_start
Substitution2: "end_arrows_1" greater_end
EndChar

StartChar: period
Encoding: 45 46 79
Width: 480
VWidth: 833
Flags: HW
LayerCount: 2
Fore
SplineSet
165 78 m 0
 165 116 203 153 241 153 c 0
 279 153 315 117 315 79 c 0
 315 40 279 4 241 4 c 0
 202 4 165 40 165 78 c 0
EndSplineSet
Validated: 1
EndChar

StartChar: comma
Encoding: 43 44 80
Width: 480
VWidth: 833
Flags: HW
LayerCount: 2
Fore
SplineSet
174 78 m 0
 174 116 212 153 250 153 c 0
 288 153 324 117 324 79 c 0
 324 51 303 19 274 7 c 1
 272 7 l 1
 230 -93 l 1
 156 -92 l 1
 192 34 l 1
 186 42 174 58 174 78 c 0
EndSplineSet
Validated: 1
EndChar

StartChar: quotesingle
Encoding: 38 39 81
Width: 480
VWidth: 833
Flags: HW
LayerCount: 2
Fore
SplineSet
286 657 m 1
 268 428 l 1
 210 428 l 1
 194 656 l 1
 286 657 l 1
EndSplineSet
Validated: 1
EndChar

StartChar: quotedbl
Encoding: 33 34 82
Width: 480
VWidth: 833
Flags: HW
LayerCount: 2
Fore
SplineSet
377 657 m 1
 361 428 l 1
 303 428 l 1
 287 656 l 1
 377 657 l 1
195 654 m 1
 177 425 l 1
 117 425 l 1
 103 653 l 1
 195 654 l 1
EndSplineSet
Validated: 1
EndChar

StartChar: colon
Encoding: 57 58 83
Width: 480
VWidth: 833
Flags: W
HStem: 25 138<193.779 289.125> 232 139<193.779 289.125>
VStem: 170 140<47.0713 139.707 254.732 347.161>
LayerCount: 2
Fore
SplineSet
170 301 m 0
 170 336 207 371 242 371 c 0
 277 371 310 337 310 302 c 0
 310 266 277 232 242 232 c 0
 206 232 170 266 170 301 c 0
170 93 m 0
 170 128 207 163 242 163 c 0
 277 163 310 130 310 95 c 0
 310 59 277 25 242 25 c 0
 206 25 170 58 170 93 c 0
EndSplineSet
Validated: 1
EndChar

StartChar: semicolon
Encoding: 58 59 84
Width: 480
VWidth: 833
Flags: HW
LayerCount: 2
Fore
SplineSet
178 92 m 0
 178 127 213 162 248 162 c 0
 283 162 318 129 318 94 c 0
 318 67 296 38 270 27 c 1
 266 26 l 1
 224 -73 l 1
 162 -72 l 1
 196 50 l 1
 189 59 178 73 178 92 c 0
178 301 m 0
 178 336 213 371 248 371 c 0
 283 371 318 337 318 302 c 0
 318 266 285 232 250 232 c 0
 214 232 178 266 178 301 c 0
EndSplineSet
Validated: 1
EndChar

StartChar: plus
Encoding: 42 43 85
Width: 480
VWidth: 833
Flags: W
HStem: 243 79<78 202 280 402>
VStem: 202 78<77 243 322 467>
LayerCount: 2
Fore
SplineSet
202 322 m 5
 202 467 l 5
 280 467 l 5
 280 322 l 5
 402 322 l 5
 402 243 l 5
 280 243 l 5
 280 77 l 5
 202 77 l 5
 202 243 l 5
 78 243 l 5
 78 322 l 5
 202 322 l 5
EndSplineSet
Validated: 1
EndChar

StartChar: equal
Encoding: 60 61 86
Width: 480
VWidth: 833
Flags: W
HStem: 150 84<0 480> 335 84<0 480>
LayerCount: 2
Fore
SplineSet
480 234 m 1
 480 150 l 1
 0 150 l 1
 0 234 l 1
 480 234 l 1
480 419 m 1
 480 335 l 1
 0 335 l 1
 0 419 l 1
 480 419 l 1
EndSplineSet
Validated: 1
Substitution2: "lengthen_dashes-1" narrow_equal
EndChar

StartChar: hyphen
Encoding: 44 45 87
Width: 480
VWidth: 833
Flags: HW
LayerCount: 2
Fore
SplineSet
403 248 m 1
 77 248 l 1
 77 317 l 1
 403 317 l 1
 403 248 l 1
EndSplineSet
Validated: 1
Substitution2: "lengthen_dashes-1" long_dash
EndChar

StartChar: underscore
Encoding: 94 95 88
Width: 480
VWidth: 833
Flags: HW
LayerCount: 2
Fore
SplineSet
449 -78 m 1
 31 -78 l 1
 31 -10 l 1
 449 -10 l 1
 449 -78 l 1
EndSplineSet
Validated: 1
EndChar

StartChar: asterisk
Encoding: 41 42 89
Width: 480
VWidth: 833
Flags: W
HStem: 351 20G<73.8889 142.564 337.5 404.667>
VStem: 202 75<333 465>
LayerCount: 2
Fore
SplineSet
377 159 m 1
 317 115 l 2
 240 217 l 1
 209 174 166 113 166 113 c 2
 104 157 l 1
 179 261 l 1
 58 299 l 1
 80 371 l 1
 202 332 l 1
 202 465 l 1
 277 465 l 1
 277 333 l 1
 398 373 l 1
 422 301 l 2
 301 262 l 1
 377 159 l 1
EndSplineSet
Validated: 1
EndChar

StartChar: asciicircum
Encoding: 93 94 90
Width: 480
VWidth: 833
Flags: HW
LayerCount: 2
Fore
SplineSet
237 649 m 1
 395 402 l 1
 329 402 l 1
 237 552 l 1
 155 402 l 1
 85 402 l 1
 237 649 l 1
EndSplineSet
Validated: 1
EndChar

StartChar: ampersand
Encoding: 37 38 91
Width: 480
VWidth: 833
Flags: HW
LayerCount: 2
Fore
SplineSet
269 511 m 0
 269 549 243 588 207 588 c 0
 171 588 139 549 139 509 c 0
 139 472 163 454 205 427 c 1
 214 433 208 429 223 441 c 0
 247 459 269 476 269 511 c 0
67 517 m 0
 67 602 124 663 207 663 c 0
 292 663 349 601 349 528 c 0
 349 452 285 397 257 373 c 1
 280 339 283 337 301 302 c 2
 301 302 315 274 323 260 c 1
 329 267 l 2
 345 289 363 333 373 359 c 1
 413 302 l 1
 408 291 405 282 397 264 c 0
 382 232 364 193 355 176 c 1
 368 126 395 61 407 5 c 1
 341 5 l 1
 335 40 328 45 313 117 c 1
 305 102 l 1
 278 37 262 5 201 5 c 0
 108 5 67 86 67 194 c 0
 67 302 111 351 141 382 c 1
 117 401 67 440 67 517 c 0
185 79 m 0
 224 79 251 144 275 203 c 1
 247 254 224 292 201 329 c 1
 157 289 131 264 131 193 c 0
 131 125 152 79 185 79 c 0
EndSplineSet
Validated: 1
EndChar

StartChar: at
Encoding: 63 64 92
Width: 480
VWidth: 833
Flags: HW
HStem: 6 60<227.525 380.725> 135 51<257.815 334.208> 470 50<254.008 335.013> 609 67<236.486 322.684>
VStem: 66 52<216.953 443.675> 184 48<214.339 448.261> 352 60<215.116 453.495>
LayerCount: 2
Fore
SplineSet
295 609 m 0
 202 609 118 453 118 326 c 0
 118 198 188 66 295 66 c 0
 351 66 388 83 408 94 c 1
 408 44 l 1
 400 36 392 30 357 20 c 0
 311 7 304 6 298 6 c 0
 297 6 296 6 295 6 c 0
 155 6 66 223 66 326 c 0
 66 462 157 676 300 676 c 0
 343 676 366 654 386 620 c 0
 409 580 414 505 414 440 c 0
 414 402 412 367 412 345 c 2
 412 326 l 2
 412 293 402 220 368 174 c 0
 351 151 327 135 295 135 c 0
 217 135 184 218 184 326 c 0
 184 439 214 520 295 520 c 0
 317 520 321 518 325 514 c 0
 333 506 333 504 352 493 c 1
 346 525 340 554 329 577 c 0
 319 596 307 609 295 609 c 0
230 352 m 0
 230 344 232 326 232 326 c 1
 232 320 l 2
 232 298 234 247 252 215 c 0
 262 199 275 186 295 186 c 0
 342 186 352 242 352 291 c 0
 352 362 352 362 352 362 c 2
 352 363 352 364 352 365 c 0
 352 396 350 470 295 470 c 0
 235 470 230 380 230 352 c 0
EndSplineSet
Validated: 1
EndChar

StartChar: asciitilde
Encoding: 125 126 93
Width: 480
VWidth: 833
Flags: W
HStem: 196 68<272.3 373.35> 278 69<109.06 209.7>
VStem: 77 326
LayerCount: 2
Fore
SplineSet
403 306 m 1
 403 246 l 1
 376 216 347 196 331 196 c 0
 265 196 226 278 151 278 c 0
 121 278 87 246 77 236 c 1
 77 295 l 1
 104 325 134 347 151 347 c 0
 217 347 256 264 331 264 c 0
 360 264 393 296 403 306 c 1
EndSplineSet
Validated: 1
EndChar

StartChar: grave
Encoding: 95 96 94
Width: 480
VWidth: 833
Flags: HW
LayerCount: 2
Fore
SplineSet
262 657 m 1
 306 428 l 1
 248 428 l 1
 174 656 l 1
 262 657 l 1
EndSplineSet
Validated: 1
EndChar

StartChar: exclamdown
Encoding: 160 161 159
Width: 480
VWidth: 833
Flags: HW
LayerCount: 2
Fore
SplineSet
170 588 m 0
 170 623 206 657 242 657 c 0
 277 657 310 623 310 587 c 0
 310 552 277 518 242 518 c 0
 207 518 170 553 170 588 c 0
204 430 m 1
 280 430 l 1
 280 9 l 1
 204 9 l 1
 204 430 l 1
EndSplineSet
Validated: 1
EndChar

StartChar: cent
Encoding: 161 162 160
Width: 480
VWidth: 833
Flags: HW
LayerCount: 2
Fore
SplineSet
412 384 m 1025
328 343 m 1025
276 559 m 1
 276 466 l 1
 284 465 l 2
 332 458 372 430 398 388 c 1
 382 380 349 366 330 356 c 1
 312 375 298 380 276 388 c 1
 276 175 l 1
 297 181 307 185 322 200 c 1
 352 184 359 180 390 159 c 1
 350 99 300 92 276 88 c 1
 276 -11 l 1
 222 -11 l 1
 222 91 l 1
 214 93 l 2
 133 113 82 185 82 281 c 0
 82 377 133 443 214 462 c 2
 222 464 l 1
 222 559 l 1
 276 559 l 1
222 382 m 1
 208 375 l 2
 174 357 152 323 152 281 c 0
 152 239 175 206 208 188 c 2
 222 180 l 1
 222 382 l 1
EndSplineSet
Validated: 1
EndChar

StartChar: sterling
Encoding: 162 163 161
Width: 480
VWidth: 833
Flags: HW
LayerCount: 2
Fore
SplineSet
402 521 m 1
 338 521 l 1
 338 522 l 2
 338 545 336 561 328 573 c 0
 318 590 300 592 274 592 c 0
 204 592 204 522 204 474 c 2
 204 354 l 1
 304 354 l 1
 304 288 l 1
 204 288 l 1
 204 63 l 1
 428 63 l 1
 428 8 l 1
 52 8 l 1
 52 63 l 1
 142 63 l 1
 142 288 l 1
 52 288 l 1
 52 354 l 1
 142 354 l 1
 142 469 l 2
 142 564 178 658 272 658 c 0
 367 658 400 617 402 521 c 1
EndSplineSet
Validated: 1
EndChar

StartChar: currency
Encoding: 163 164 162
Width: 480
VWidth: 833
Flags: HW
LayerCount: 2
Fore
SplineSet
231 311 m 0
 158 311 109 258 109 198 c 0
 109 136 158 81 235 81 c 0
 304 81 367 127 367 192 c 0
 367 255 305 311 231 311 c 0
61 204 m 0
 61 249 79 278 89 294 c 1
 39 344 l 1
 81 384 l 1
 131 336 l 1
 137 339 l 2
 167 355 202 364 237 364 c 0
 293 364 323 344 341 333 c 1
 393 384 l 1
 437 338 l 1
 383 286 l 1
 395 268 413 242 413 196 c 0
 413 155 399 123 391 106 c 1
 441 55 l 1
 399 13 l 1
 349 60 l 1
 343 57 l 2
 310 42 273 35 239 35 c 0
 181 35 147 55 131 64 c 1
 79 13 l 1
 39 55 l 1
 91 108 l 1
 87 114 l 2
 69 141 61 173 61 204 c 0
EndSplineSet
Validated: 1
EndChar

StartChar: yen
Encoding: 164 165 163
Width: 480
VWidth: 833
Flags: HW
LayerCount: 2
Fore
SplineSet
211 334 m 1
 211 336 l 1
 87 658 l 1
 149 658 l 1
 239 365 l 1
 333 658 l 1
 393 658 l 1
 269 336 l 1
 269 334 l 1
 269 322 l 1
 369 322 l 1
 369 288 l 1
 269 288 l 1
 269 196 l 1
 369 196 l 1
 369 163 l 1
 269 163 l 1
 269 10 l 1
 211 10 l 1
 211 163 l 1
 105 163 l 1
 105 195 l 1
 211 195 l 1
 211 288 l 1
 105 288 l 1
 105 321 l 1
 211 321 l 1
 211 334 l 1
EndSplineSet
Validated: 1
EndChar

StartChar: brokenbar
Encoding: 165 166 164
Width: 480
VWidth: 833
Flags: HW
LayerCount: 2
Fore
SplineSet
268 418 m 1
 212 418 l 1
 212 742 l 1
 268 742 l 1
 268 418 l 1
268 -76 m 1
 212 -76 l 1
 212 315 l 1
 268 315 l 1
 268 -76 l 1
EndSplineSet
Validated: 1
EndChar

StartChar: section
Encoding: 166 167 165
Width: 480
VWidth: 833
Flags: HW
LayerCount: 2
Fore
SplineSet
415 274 m 0
 415 249 397 220 363 199 c 2
 351 191 l 1
 363 182 l 2
 386 164 397 145 397 119 c 0
 397 59 334 13 239 13 c 0
 145 13 74 59 65 109 c 1
 139 109 l 1
 146 80 183 57 227 57 c 0
 278 57 323 87 323 124 c 0
 323 159 284 172 243 172 c 0
 155 172 79 232 79 283 c 0
 79 306 96 338 129 361 c 2
 139 368 l 1
 131 376 l 2
 109 397 97 420 97 441 c 0
 97 491 161 548 253 548 c 0
 340 548 408 494 415 433 c 1
 341 433 l 1
 334 470 291 495 247 495 c 0
 206 495 175 472 175 439 c 0
 175 420 188 388 223 388 c 0
 324 388 415 334 415 274 c 0
249 222 m 0
 302 222 337 245 337 276 c 0
 337 288 331 299 323 307 c 0
 306 323 278 331 243 331 c 0
 191 331 155 312 155 280 c 0
 155 248 194 222 249 222 c 0
EndSplineSet
Validated: 1
EndChar

StartChar: dieresis
Encoding: 167 168 166
Width: 480
VWidth: 833
Flags: HW
LayerCount: 2
Fore
SplineSet
271 537 m 0
 271 555 291 575 309 575 c 0
 328 575 347 556 347 538 c 0
 347 519 330 499 311 499 c 0
 293 499 271 519 271 537 c 0
133 537 m 0
 133 555 153 574 173 574 c 0
 191 574 209 556 209 538 c 0
 209 519 190 499 173 499 c 0
 154 499 133 519 133 537 c 0
EndSplineSet
Validated: 1
EndChar

StartChar: copyright
Encoding: 168 169 167
Width: 480
VWidth: 833
Flags: HW
LayerCount: 2
Fore
SplineSet
342 398 m 1
 266 370 l 1
 266 429 266 432 234 432 c 0
 205 432 202 429 202 397 c 0
 202 384 202 367 202 344 c 0
 202 318 202 299 202 283 c 0
 202 253 205 240 234 240 c 0
 257 240 258 258 258 301 c 1
 342 301 l 1
 347 281 350 263 350 247 c 0
 350 185 315 150 244 150 c 0
 166 150 126 195 126 344 c 0
 126 470 168 523 234 523 c 0
 296 523 342 484 342 398 c 1
508 363 m 0
 508 95 403 -1 248 -1 c 0
 107 -1 -28 101 -28 346 c 0
 -28 544 117 662 236 662 c 0
 363 662 508 564 508 363 c 0
236 597 m 0
 146 597 24 513 24 346 c 0
 24 141 138 66 248 66 c 0
 360 66 456 133 456 361 c 0
 456 521 334 597 236 597 c 0
EndSplineSet
Validated: 1
EndChar

StartChar: guillemotleft
Encoding: 170 171 168
Width: 480
VWidth: 833
Flags: HW
LayerCount: 2
Fore
SplineSet
398 353 m 1
 304 267 l 1
 398 175 l 1
 398 113 l 1
 242 267 l 1
 398 411 l 1
 398 353 l 1
236 355 m 1
 132 267 l 1
 236 174 l 1
 236 113 l 1
 82 267 l 1
 236 411 l 1
 236 355 l 1
EndSplineSet
Validated: 1
EndChar

StartChar: logicalnot
Encoding: 171 172 169
Width: 480
VWidth: 833
Flags: HW
LayerCount: 2
Fore
SplineSet
333 282 m 1
 75 282 l 1
 75 346 l 1
 405 346 l 1
 405 152 l 1
 333 152 l 1
 333 282 l 1
EndSplineSet
Validated: 1
EndChar

StartChar: softhyphen
Encoding: 172 173 170
Width: 480
VWidth: 833
Flags: HW
LayerCount: 2
Fore
SplineSet
403 248 m 1
 77 248 l 1
 77 317 l 1
 403 317 l 1
 403 248 l 1
EndSplineSet
Validated: 1
EndChar

StartChar: registered
Encoding: 173 174 171
Width: 480
VWidth: 833
Flags: HW
LayerCount: 2
Fore
SplineSet
197 470 m 1
 197 357 l 1
 209 357 217 357 243 357 c 0
 273 357 301 385 301 416 c 0
 301 445 275 470 243 470 c 0
 219 470 219 470 197 470 c 1
227 313 m 1
 197 313 l 1
 197 150 l 1
 145 150 l 1
 145 521 l 1
 145 521 187 521 267 521 c 0
 309 521 349 466 349 416 c 0
 349 373 318 326 283 316 c 1
 351 150 l 1
 293 150 l 1
 227 313 l 1
485 363 m 1
 478 99 386 -1 231 -1 c 0
 97 -1 -5 101 -5 346 c 0
 -5 544 109 662 231 662 c 0
 353 662 485 564 485 363 c 1
231 597 m 0
 140 597 47 513 47 346 c 0
 47 141 128 66 231 66 c 0
 343 66 428 133 435 361 c 1
 435 521 334 597 231 597 c 0
EndSplineSet
Validated: 1
EndChar

StartChar: macron
Encoding: 174 175 172
Width: 480
VWidth: 833
Flags: HW
LayerCount: 2
Fore
SplineSet
403 712 m 1
 77 712 l 1
 77 781 l 1
 403 781 l 1
 403 712 l 1
EndSplineSet
Validated: 1
EndChar

StartChar: degree
Encoding: 175 176 173
Width: 480
VWidth: 833
Flags: HW
LayerCount: 2
Fore
SplineSet
170 663 m 0
 170 623 201 591 240 591 c 0
 279 591 310 623 310 663 c 0
 310 703 279 736 240 736 c 0
 201 736 170 703 170 663 c 0
128 663 m 0
 128 727 179 778 240 778 c 0
 301 778 352 727 352 663 c 0
 352 599 301 548 240 548 c 0
 179 548 128 599 128 663 c 0
EndSplineSet
Validated: 1
EndChar

StartChar: plusminus
Encoding: 176 177 174
Width: 480
VWidth: 833
Flags: HW
LayerCount: 2
Fore
SplineSet
396 192 m 1
 396 118 l 1
 70 118 l 1
 70 192 l 1
 396 192 l 1
262 570 m 1
 262 466 l 1
 410 466 l 1
 410 398 l 1
 262 398 l 1
 262 296 l 1
 194 296 l 1
 194 398 l 1
 70 398 l 1
 70 466 l 1
 194 466 l 1
 194 570 l 1
 262 570 l 1
EndSplineSet
Validated: 1
EndChar

StartChar: acute
Encoding: 179 180 175
Width: 480
VWidth: 833
Flags: HW
LayerCount: 2
Fore
SplineSet
309 658 m 1
 229 497 l 1
 171 497 l 1
 221 658 l 1
 309 658 l 1
EndSplineSet
Validated: 1
EndChar

StartChar: mu
Encoding: 180 181 176
Width: 480
VWidth: 833
Flags: HW
LayerCount: 2
Fore
SplineSet
437 -17 m 1
 377 -17 l 1
 369 -6 357 48 357 49 c 2
 351 70 l 1
 339 53 l 2
 315 21 293 10 253 10 c 0
 220 10 193 30 167 49 c 0
 162 53 161 53 155 57 c 1
 151 57 l 2
 143 57 141 49 141 42 c 0
 141 40 141 38 141 38 c 2
 141 20 140 -21 133 -62 c 0
 126 -102 103 -143 95 -157 c 1
 43 -157 l 1
 55 -137 77 -100 83 -62 c 0
 88 -31 89 2 89 30 c 2
 89 393 l 1
 153 393 l 1
 153 139 l 1
 162 117 192 66 253 66 c 0
 335 66 351 135 351 137 c 2
 351 393 l 1
 415 393 l 1
 415 51 l 2
 415 37 428 0 437 -17 c 1
EndSplineSet
Validated: 1
EndChar

StartChar: paragraph
Encoding: 181 182 177
Width: 480
VWidth: 833
Flags: HW
LayerCount: 2
Fore
SplineSet
79 485 m 0
 79 555 142 655 203 655 c 2
 401 655 l 1
 401 10 l 1
 353 10 l 1
 353 616 l 1
 257 616 l 1
 257 10 l 1
 207 10 l 1
 207 315 l 1
 207 315 206 315 163 315 c 0
 122 315 79 410 79 485 c 0
EndSplineSet
Validated: 1
EndChar

StartChar: periodcentered
Encoding: 182 183 178
Width: 480
VWidth: 833
Flags: HW
LayerCount: 2
Fore
SplineSet
170 280 m 0
 170 315 207 350 242 350 c 0
 277 350 310 316 310 281 c 0
 310 245 277 211 242 211 c 0
 206 211 170 245 170 280 c 0
EndSplineSet
Validated: 1
EndChar

StartChar: cedilla
Encoding: 183 184 179
Width: 480
VWidth: 833
Flags: HW
LayerCount: 2
Fore
SplineSet
267 -50 m 1
 286 -60 317 -80 317 -111 c 0
 317 -164 254 -167 237 -167 c 0
 236 -167 236 -167 236 -167 c 2
 201 -167 175 -151 157 -133 c 1
 186 -99 l 1
 186 -99 214 -128 237 -128 c 0
 262 -128 270 -120 270 -106 c 0
 270 -86 227 -77 211 -69 c 1
 232 0 l 1
 283 0 l 1
 267 -50 l 1
EndSplineSet
Validated: 1
EndChar

StartChar: guillemotright
Encoding: 184 187 180
Width: 480
VWidth: 833
Flags: HW
LayerCount: 2
Fore
SplineSet
236 267 m 1
 82 113 l 1
 82 175 l 1
 176 267 l 1
 82 353 l 1
 82 411 l 1
 236 267 l 1
398 267 m 1
 242 113 l 1
 242 174 l 1
 348 267 l 1
 242 355 l 1
 242 411 l 1
 398 267 l 1
EndSplineSet
Validated: 1
EndChar

StartChar: onehalf
Encoding: 185 189 181
Width: 480
Flags: HW
LayerCount: 2
Fore
SplineSet
278 95 m 1
 278 138 l 1
 344 207 396 280 396 334 c 0
 396 383 378 386 360 386 c 0
 335 386 327 367 278 326 c 1
 278 378 l 1
 315 409 328 429 360 429 c 0
 404 429 444 392 444 336 c 0
 444 283 400 219 336 138 c 1
 440 138 l 1
 440 95 l 1
 278 95 l 1
36 764 m 1
 84 802 l 1
 120 802 l 1
 120 483 l 1
 172 483 l 1
 172 441 l 1
 36 441 l 1
 36 483 l 1
 84 483 l 1
 84 746 l 1
 36 709 l 1
 36 764 l 1
348 833 m 1
 140 0 l 1
 100 0 l 1
 308 833 l 1
 348 833 l 1
EndSplineSet
Validated: 1
EndChar

StartChar: threequarters
Encoding: 186 190 182
Width: 480
Flags: HW
LayerCount: 2
Fore
SplineSet
176 609 m 1
 202 590 222 557 222 531 c 0
 222 483 182 442 140 442 c 0
 108 442 72 472 52 514 c 1
 92 514 l 1
 104 492 123 478 138 478 c 0
 158 478 176 501 176 527 c 0
 176 561 156 576 136 611 c 1
 156 639 176 656 176 685 c 0
 176 715 159 733 130 733 c 0
 117 733 102 723 92 709 c 1
 92 709 63 709 50 709 c 1
 50 709 84 775 130 775 c 0
 177 775 222 732 222 678 c 0
 222 657 202 627 176 609 c 1
392 833 m 1
 176 0 l 1
 136 0 l 1
 350 833 l 1
 392 833 l 1
288 200 m 1
 288 243 l 1
 358 449 l 1
 398 449 l 1
 398 243 l 1
 430 243 l 1
 430 200 l 1
 398 200 l 1
 398 192 398 182 398 175 c 0
 398 145 400 125 400 89 c 1
 364 89 l 1
 364 200 l 1
 288 200 l 1
364 243 m 1
 364 352 l 1
 328 243 l 1
 364 243 l 1
EndSplineSet
Validated: 1
EndChar

StartChar: questiondown
Encoding: 187 191 183
Width: 480
VWidth: 833
Flags: HW
LayerCount: 2
Fore
SplineSet
234 518 m 0
 199 518 164 553 164 588 c 4
 164 624 197 658 232 658 c 0
 270 658 299 621 299 588 c 4
 299 555 272 518 234 518 c 0
144 160 m 0
 144 90 177 71 244 71 c 0
 302 71 329 112 338 128 c 1
 402 128 l 1
 394 113 379 88 356 64 c 0
 328 35 290 9 244 9 c 0
 200 9 162 19 134 39 c 0
 99 64 78 103 78 160 c 0
 78 188 105 216 136 246 c 0
 166 276 200 308 200 350 c 2
 200 440 l 1
 270 440 l 1
 270 421 270 387 270 350 c 0
 270 286 144 218 144 160 c 0
EndSplineSet
Validated: 1
EndChar

StartChar: AE
Encoding: 194 198 190
Width: 480
VWidth: 833
Flags: HW
LayerCount: 2
Fore
SplineSet
302 652 m 0
 354 652 406 652 428 653 c 1
 428 592 l 1
 298 592 l 1
 298 373 l 1
 428 373 l 1
 428 314 l 1
 298 314 l 1
 298 66 l 1
 398 66 l 2
 410 66 421 66 428 66 c 1
 428 10 l 1
 242 10 l 1
 242 162 l 1
 154 162 l 1
 125 29 126 29 122 10 c 1
 52 10 l 1
 60 51 90 190 118 330 c 0
 147 473 176 613 182 653 c 1
 193 652 207 652 302 652 c 0
242 529 m 1
 224 531 l 1
 170 222 l 1
 242 222 l 1
 242 529 l 1
EndSplineSet
Validated: 1
EndChar

StartChar: Eth
Encoding: 204 208 200
Width: 480
VWidth: 833
Flags: HW
LayerCount: 2
Fore
SplineSet
103 10 m 1
 103 302 l 1
 61 302 l 1
 61 370 l 1
 103 370 l 1
 103 655 l 1
 259 655 l 2
 323 655 419 512 419 332 c 0
 419 167 322 10 259 10 c 2
 103 10 l 1
221 589 m 2
 171 589 l 1
 171 370 l 1
 253 370 l 1
 253 302 l 1
 171 302 l 1
 171 63 l 1
 221 63 l 2
 275 63 361 187 361 332 c 0
 361 485 277 589 221 589 c 2
EndSplineSet
Validated: 1
EndChar

StartChar: multiply
Encoding: 211 215 207
Width: 480
VWidth: 833
Flags: HW
LayerCount: 2
Fore
SplineSet
138 462 m 1
 236 326 l 1
 344 462 l 1
 416 462 l 1
 292 282 l 1
 410 81 l 1
 348 81 l 1
 238 247 l 1
 130 81 l 1
 64 81 l 1
 178 282 l 1
 66 462 l 1
 138 462 l 1
EndSplineSet
Validated: 1
EndChar

StartChar: Oslash
Encoding: 212 216 208
Width: 480
VWidth: 833
Flags: HW
LayerCount: 2
Fore
SplineSet
353 507 m 1025
289 108 m 0
 300 128 303 164 303 253 c 0
 303 292 291 340 291 398 c 2
 291 463 l 1
 213 163 l 1
 213 163 213 163 213 143 c 0
 213 142 213 141 213 140 c 0
 213 121 213 87 245 87 c 0
 262 87 278 88 289 108 c 0
201 229 m 1
 277 511 l 1
 277 513 l 2
 277 528 276 543 273 557 c 0
 268 575 257 588 237 588 c 0
 204 588 195 569 195 440 c 0
 195 382 198 327 201 229 c 1
307 600 m 0
 311 594 310 593 315 585 c 1
 321 585 l 2
 326 585 328 588 329 589 c 0
 331 592 357 654 357 655 c 1
 399 655 l 1
 393 640 385 615 375 590 c 0
 344 510 343 509 343 507 c 2
 343 506 l 1
 354 452 357 382 357 343 c 2
 357 342 l 2
 359 311 359 283 359 256 c 0
 359 91 324 10 245 10 c 0
 213 10 208 23 189 58 c 0
 182 71 179 74 171 87 c 1
 165 87 l 2
 163 87 160 87 157 83 c 0
 155 80 123 11 123 10 c 1
 81 10 l 1
 87 25 97 52 107 78 c 0
 139 161 139 161 139 163 c 2
 139 164 l 1
 128 210 123 267 123 343 c 0
 123 633 201 658 237 658 c 0
 272 658 282 641 307 600 c 0
EndSplineSet
Validated: 1
EndChar

StartChar: Thorn
Encoding: 218 222 214
Width: 480
VWidth: 833
Flags: HW
LayerCount: 2
Fore
SplineSet
144 511 m 1
 144 234 l 1
 270 234 l 2
 334 234 334 304 334 373 c 0
 334 374 334 375 334 376 c 0
 334 492 294 511 270 511 c 2
 144 511 l 1
270 172 m 2
 144 172 l 1
 144 12 l 1
 82 12 l 1
 82 654 l 1
 144 654 l 1
 144 574 l 1
 270 574 l 2
 362 574 398 493 398 377 c 0
 398 262 363 172 270 172 c 2
EndSplineSet
Validated: 1
EndChar

StartChar: germandbls
Encoding: 219 223 215
Width: 480
VWidth: 833
Flags: HW
LayerCount: 2
Fore
SplineSet
292 63 m 2
 340 63 342 124 342 173 c 2
 342 174 l 1
 329 249 194 296 194 359 c 0
 194 403 278 464 278 516 c 0
 278 518 278 519 278 521 c 0
 278 552 278 602 224 602 c 0
 168 602 140 535 140 482 c 2
 140 -66 l 1
 78 -66 l 1
 78 482 l 2
 78 575 136 668 224 668 c 0
 311 668 340 607 340 530 c 2
 340 530 340 525 340 515 c 0
 340 483 307 448 278 418 c 0
 258 393 246 376 246 359 c 0
 246 340 263 321 300 288 c 0
 342 255 395 212 402 172 c 1
 402 79 346 20 292 20 c 1
 272 36 198 35 192 106 c 1
 238 106 l 1
 242 63 270 63 284 63 c 2
 292 63 l 2
EndSplineSet
Validated: 1
EndChar

StartChar: ae
Encoding: 226 230 222
Width: 480
VWidth: 833
Flags: HW
LayerCount: 2
Fore
SplineSet
164 56 m 0
 186 56 201 67 208 84 c 0
 214 97 214 112 214 128 c 0
 214 164 206 184 164 184 c 0
 110 184 102 154 102 125 c 0
 102 60 153 56 164 56 c 0
388 107 m 1
 412 70 l 1
 384 33 358 11 328 11 c 0
 294 11 271 47 248 85 c 1
 241 68 241 67 240 64 c 0
 232 44 218 11 164 11 c 0
 97 11 52 58 52 123 c 0
 52 187 94 238 162 238 c 0
 190 238 202 232 226 219 c 1
 226 270 l 1
 214 294 196 323 164 323 c 0
 133 323 110 302 98 290 c 1
 81 309 82 309 72 320 c 1
 82 338 120 385 166 385 c 2
 170 385 l 2
 197 385 221 366 240 337 c 2
 248 325 l 1
 254 338 l 2
 271 370 296 385 328 385 c 0
 376 385 426 326 428 172 c 1
 272 172 l 1
 272 162 l 2
 272 111 296 68 328 68 c 0
 363 68 376 87 388 107 c 1
272 231 m 2
 272 221 l 1
 384 221 l 1
 384 231 l 2
 384 282 363 328 328 328 c 0
 292 328 272 275 272 231 c 2
EndSplineSet
Validated: 1
EndChar

StartChar: eth
Encoding: 236 240 232
Width: 480
VWidth: 833
Flags: HW
LayerCount: 2
Fore
SplineSet
68 214 m 0
 68 325 131 398 214 398 c 2
 222 398 l 2
 261 398 271 394 332 363 c 1
 332 371 326 390 324 390 c 1
 324 390 324 390 324 388 c 1
 324 388 284 490 236 532 c 1
 236 542 230 548 230 538 c 1
 230 539 229 539 228 539 c 0
 213 539 98 477 98 468 c 1
 98 478 98 513 98 513 c 2
 98 522 188 573 202 573 c 1
 174 613 152 640 126 668 c 1
 162 668 l 1
 199 642 231 613 264 595 c 1
 264 604 382 663 398 663 c 0
 399 663 400 663 400 662 c 2
 400 662 400 620 400 610 c 1
 400 611 400 611 398 611 c 0
 385 611 327 582 314 569 c 1
 317 568 320 562 320 555 c 1
 324 551 329 545 334 539 c 0
 375 490 382 467 404 384 c 1
 406 357 412 295 412 224 c 1
 392 76 331 20 224 20 c 0
 132 20 68 101 68 214 c 0
214 312 m 0
 173 312 132 265 132 205 c 0
 132 145 172 98 224 98 c 0
 273 98 318 145 338 205 c 1
 338 265 294 312 214 312 c 0
EndSplineSet
Validated: 1
EndChar

StartChar: divide
Encoding: 243 247 239
Width: 480
VWidth: 833
Flags: HW
LayerCount: 2
Fore
SplineSet
202 120 m 0
 202 138 222 158 240 158 c 0
 259 158 278 139 278 121 c 0
 278 102 259 82 240 82 c 0
 222 82 202 102 202 120 c 0
202 425 m 0
 202 443 220 462 240 462 c 0
 258 462 278 444 278 426 c 0
 278 407 259 387 242 387 c 0
 223 387 202 407 202 425 c 0
396 248 m 1
 84 248 l 1
 84 317 l 1
 396 317 l 1
 396 248 l 1
EndSplineSet
Validated: 1
EndChar

StartChar: oslash
Encoding: 244 248 240
Width: 480
VWidth: 833
Flags: HW
LayerCount: 2
Fore
SplineSet
131 330 m 0
 155 367 194 388 241 388 c 0
 274 388 289 378 325 353 c 1
 349 392 l 1
 409 392 l 1
 347 311 l 1
 361 286 375 258 375 200 c 0
 375 81 320 10 253 10 c 0
 210 10 175 41 157 55 c 1
 121 10 l 1
 71 10 l 1
 129 89 l 1
 125 95 l 2
 109 125 101 162 101 209 c 0
 101 260 111 300 131 330 c 0
155 142 m 2
 161 126 l 1
 287 305 l 1
 285 311 l 2
 277 327 260 333 243 333 c 0
 191 333 143 271 143 212 c 0
 143 189 150 156 155 142 c 2
321 265 m 1
 195 88 l 1
 207 78 222 66 245 66 c 0
 291 66 331 127 331 205 c 0
 331 233 331 237 321 265 c 1
EndSplineSet
Validated: 1
EndChar

StartChar: thorn
Encoding: 250 254 246
Width: 480
VWidth: 833
Flags: HW
LayerCount: 2
Fore
SplineSet
240 88 m 0
 291 88 334 134 334 194 c 0
 334 254 291 301 240 301 c 0
 190 301 148 254 148 194 c 0
 148 134 190 88 240 88 c 0
240 3 m 0
 198 3 175 17 144 36 c 1
 144 31 144 -167 144 -167 c 1
 82 -167 l 1
 82 664 l 1
 144 664 l 1
 144 664 144 360 144 357 c 1
 144 360 158 369 158 366 c 1
 185 383 213 391 240 391 c 0
 331 391 398 310 398 194 c 0
 398 81 333 3 240 3 c 0
EndSplineSet
Validated: 1
EndChar

StartChar: diaeresiscomb
Encoding: 252 776 248
Width: 480
VWidth: 833
Flags: HW
LayerCount: 2
Fore
SplineSet
271 537 m 0
 271 555 291 575 309 575 c 0
 328 575 347 556 347 538 c 0
 347 519 330 499 311 499 c 0
 293 499 271 519 271 537 c 0
133 537 m 0
 133 555 153 574 173 574 c 0
 191 574 209 556 209 538 c 0
 209 519 190 499 173 499 c 0
 154 499 133 519 133 537 c 0
EndSplineSet
Validated: 1
EndChar

StartChar: dotlessi
Encoding: 253 305 249
Width: 480
VWidth: 833
Flags: HW
LayerCount: 2
Fore
SplineSet
268 74 m 1
 396 74 l 1
 396 11 l 1
 236 11 l 2
 218 11 204 25 204 42 c 2
 208 308 l 1
 84 308 l 1
 84 371 l 1
 238 371 l 2
 255 371 270 356 270 339 c 0
 269 173 268 87 268 84 c 2
 268 74 l 1
EndSplineSet
Validated: 1
EndChar

StartChar: acutecomb
Encoding: 254 769 250
Width: 480
VWidth: 833
Flags: HW
LayerCount: 2
Fore
SplineSet
309 658 m 1
 229 497 l 1
 171 497 l 1
 221 658 l 1
 309 658 l 1
EndSplineSet
Validated: 1
EndChar

StartChar: gravecomb
Encoding: 255 768 253
Width: 480
VWidth: 833
Flags: HW
LayerCount: 2
Fore
SplineSet
309 497 m 1
 251 497 l 1
 171 658 l 1
 259 658 l 1
 309 497 l 1
EndSplineSet
Validated: 1
EndChar

StartChar: fraction
Encoding: 256 8260 254
Width: 480
VWidth: 833
Flags: HW
LayerCount: 2
Fore
SplineSet
161 11 m 1
 81 11 l 1
 325 658 l 1
 399 658 l 1
 161 11 l 1
EndSplineSet
Validated: 1
EndChar

StartChar: Scaron
Encoding: 159 352 255
Width: 480
Flags: HW
LayerCount: 2
Fore
SplineSet
237 717 m 1
 85 964 l 1
 155 964 l 1
 237 814 l 1
 329 964 l 1
 395 964 l 1
 237 717 l 1
315 499 m 1
 305 539 278 597 233 597 c 0
 205 597 157 575 157 521 c 0
 157 394 395 361 395 190 c 0
 395 123 361 10 251 10 c 0
 132 10 100 144 93 188 c 1
 173 188 l 1
 180 144 207 87 257 87 c 2
 259 87 l 2
 320 88 327 150 327 177 c 0
 327 185 325 191 325 193 c 0
 324 239 274 273 229 313 c 1
 163 363 85 418 85 501 c 0
 85 584 158 657 241 657 c 0
 339 657 375 540 385 499 c 1
 315 499 l 1
EndSplineSet
Validated: 1
EndChar

StartChar: circumflexcmb
Encoding: 257 770 257
Width: 480
VWidth: 833
Flags: HW
LayerCount: 2
Fore
SplineSet
237 538 m 1
 387 402 l 1
 327 402 l 1
 239 468 l 1
 159 402 l 1
 93 402 l 1
 237 538 l 1
EndSplineSet
Validated: 1
EndChar

StartChar: tildecomb
Encoding: 258 771 258
Width: 480
VWidth: 833
Flags: HW
LayerCount: 2
Fore
SplineSet
403 306 m 1
 403 246 l 1
 376 216 347 196 331 196 c 0
 265 196 226 278 151 278 c 0
 121 278 87 246 77 236 c 1
 77 295 l 1
 104 325 134 347 151 347 c 0
 217 347 256 264 331 264 c 0
 360 264 393 296 403 306 c 1
EndSplineSet
Validated: 1
EndChar

StartChar: cedillacmb
Encoding: 259 807 259
Width: 480
VWidth: 833
Flags: W
HStem: -167 39<197.733 269.783> -69 69<232 260.462>
VStem: 270 47<-126.979 -84.049>
LayerCount: 2
Fore
SplineSet
267 -50 m 1
 286 -60 317 -80 317 -111 c 0
 317 -164 254 -167 237 -167 c 0
 236 -167 236 -167 236 -167 c 2
 201 -167 175 -151 157 -133 c 1
 186 -99 l 2
 186 -99 214 -128 237 -128 c 0
 262 -128 270 -120 270 -106 c 0
 270 -86 227 -77 211 -69 c 1
 232 0 l 1
 283 0 l 1
 267 -50 l 1
EndSplineSet
Validated: 1
EndChar

StartChar: ringcmb
Encoding: 260 778 260
Width: 480
VWidth: 833
Flags: HW
LayerCount: 2
Fore
SplineSet
168 663 m 0
 168 623 201 591 240 591 c 0
 279 591 310 623 310 663 c 0
 310 703 279 736 240 736 c 0
 201 736 168 703 168 663 c 0
128 663 m 0
 128 727 179 778 240 778 c 0
 301 778 352 727 352 663 c 0
 352 599 301 548 240 548 c 0
 179 548 128 599 128 663 c 0
EndSplineSet
Validated: 1
EndChar

StartChar: acutedblnosp
Encoding: 261 779 261
Width: 480
VWidth: 833
Flags: HW
LayerCount: 2
Fore
SplineSet
410 658 m 1
 330 497 l 1
 264 497 l 1
 320 658 l 1
 410 658 l 1
216 658 m 1
 128 497 l 1
 70 497 l 1
 122 658 l 1
 216 658 l 1
EndSplineSet
Validated: 1
EndChar

StartChar: onequarter
Encoding: 262 188 262
Width: 480
Flags: HW
LayerCount: 2
Fore
SplineSet
63 764 m 1
 111 802 l 1
 147 802 l 1
 147 483 l 1
 199 483 l 1
 199 441 l 1
 63 441 l 1
 63 483 l 1
 111 483 l 1
 111 746 l 1
 63 709 l 1
 63 764 l 1
379 833 m 1
 167 0 l 1
 127 0 l 1
 339 833 l 1
 379 833 l 1
279 200 m 1
 279 243 l 1
 347 449 l 1
 385 449 l 1
 385 243 l 1
 417 243 l 1
 417 200 l 1
 385 200 l 1
 385 192 385 182 385 175 c 0
 385 145 387 125 387 89 c 1
 351 89 l 1
 351 200 l 1
 279 200 l 1
351 243 m 1
 351 352 l 1
 319 243 l 1
 351 243 l 1
EndSplineSet
Validated: 1
EndChar

StartChar: ht_www
Encoding: 277 -1 277
Width: 1440
HStem: 0 21G<202.833 297.913 390.667 488.651 570.279 667.167 757.598 856.615 934.346 1030.06 1122.81 1219.98> 357 20G<321.258 383.425 1053.26 1115.43>
VStem: 136 70<397.8 442>
LayerCount: 2
Fore
SplineSet
980 48 m 1
 1058 377 l 1
 1112 377 l 1
 1168 50 l 1
 1236 442 l 1
 1304 442 l 1
 1216 0 l 1
 1126 0 l 1
 1082 276 l 1
 1026 0 l 1
 938 0 l 1
 900 208 l 1
 852 0 l 1
 762 0 l 1
 716 209 l 1
 662 0 l 1
 574 0 l 1
 534 215 l 1
 484 0 l 1
 394 0 l 1
 348 276 l 1
 294 0 l 1
 206 0 l 1
 136 442 l 1
 206 442 l 1
 248 48 l 1
 326 377 l 1
 380 377 l 1
 436 50 l 1
 504 345 l 1
 574 345 l 1
 616 48 l 1
 694 313 l 1
 748 313 l 1
 804 50 l 1
 868 345 l 1
 940 345 l 1
 980 48 l 1
EndSplineSet
Validated: 1
Ligature2: "programming_symbols" w w w
LCarets2: 2 0 0
EndChar

StartChar: ht_comment_open
Encoding: 278 -1 278
Width: 1920
Flags: H
HStem: -167 139<671.5 766.25> 162 78<257 650 787 1847>
VStem: 650 137<-145.5 -49.875> 682 76<59 481>
LayerCount: 2
Fore
SplineSet
1847 162 m 5xe0
 835 162 l 5
 835 240 l 5
 1847 240 l 5
 1847 162 l 5xe0
758 481 m 5xd0
 758 59 l 5
 682 59 l 5
 682 481 l 5
 758 481 l 5xd0
650 -98 m 4xe0
 650 -63 684 -28 720 -28 c 4
 754 -28 787 -62 787 -97 c 4
 787 -133 754 -167 720 -167 c 4
 684 -167 650 -133 650 -98 c 4xe0
403 83 m 5
 403 5 l 5
 73 202 l 5
 403 392 l 5
 403 311 l 5
 257 241 l 5
 606 241 l 5
 606 162 l 5
 252 162 l 5
 403 83 l 5
EndSplineSet
Validated: 1
Ligature2: "programming_symbols" less exclam hyphen hyphen
LCarets2: 3 0 0 0
EndChar

StartChar: plus_plus
Encoding: 279 -1 279
Width: 960
HStem: 243 79<156 280 358 604 682 804>
VStem: 280 78<77 243 322 467> 604 78<77 243 322 467>
LayerCount: 2
Fore
SplineSet
604 322 m 5
 604 467 l 1
 682 467 l 1
 682 322 l 1
 804 322 l 1
 804 243 l 1
 682 243 l 1
 682 77 l 1
 604 77 l 1
 604 243 l 1
 522 243 440 243 358 243 c 1
 358 77 l 1
 280 77 l 1
 280 243 l 1
 156 243 l 1
 156 322 l 1
 280 322 l 1
 280 467 l 1
 358 467 l 1
 358 322 l 5
 604 322 l 5
EndSplineSet
Validated: 1
Ligature2: "programming_symbols" plus plus
LCarets2: 1 0
EndChar

StartChar: divide_equals
Encoding: 283 -1 283
Width: 960
Flags: H
LayerCount: 2
Fore
SplineSet
816 444 m 5
 816 360 l 5
 364 360 l 5
 327 259 l 5
 816 259 l 5
 816 175 l 5
 296 175 l 5
 234 6 l 5
 144 6 l 5
 390 663 l 5
 476 663 l 5
 395 444 l 5
 816 444 l 5
EndSplineSet
Validated: 1
Ligature2: "programming_symbols" slash equal
LCarets2: 1 0
EndChar

StartChar: logical_and
Encoding: 284 -1 284
Width: 960
Flags: H
LayerCount: 2
Fore
SplineSet
307 511 m 0
 307 549 281 588 245 588 c 0
 209 588 177 549 177 509 c 0
 177 472 201 454 243 427 c 1
 252 433 246 429 261 441 c 0
 285 459 307 476 307 511 c 0
105 517 m 0
 105 602 162 663 245 663 c 0
 330 663 387 601 387 528 c 0
 387 452 323 397 295 373 c 1
 318 339 321 337 339 302 c 0
 369 250 369 250 401 157 c 1
 414 107 433 61 445 5 c 1
 379 5 l 1
 373 40 366 45 351 117 c 1
 343 102 l 1
 316 37 300 5 239 5 c 0
 146 5 105 86 105 194 c 0
 105 302 149 351 179 382 c 1
 155 401 105 440 105 517 c 0
223 79 m 0
 262 79 289 144 313 203 c 1
 285 254 262 292 239 329 c 1
 195 289 169 264 169 193 c 0
 169 125 190 79 223 79 c 0
711 511 m 4
 711 549 685 588 649 588 c 4
 613 588 581 549 581 509 c 4
 581 472 605 454 647 427 c 5
 656 433 650 429 665 441 c 4
 689 459 711 476 711 511 c 4
509 517 m 4
 509 602 566 663 649 663 c 4
 734 663 791 601 791 528 c 4
 791 452 727 397 699 373 c 5
 722 339 725 337 743 302 c 6
 743 302 757 274 765 260 c 5
 771 267 l 6
 787 289 805 333 815 359 c 5
 855 302 l 5
 850 291 847 282 839 264 c 4
 824 232 806 193 797 176 c 5
 810 126 837 61 849 5 c 5
 783 5 l 5
 777 40 770 45 755 117 c 5
 747 102 l 5
 720 37 704 5 643 5 c 4
 550 5 509 86 509 194 c 4
 509 302 553 351 583 382 c 5
 559 401 509 440 509 517 c 4
627 79 m 4
 666 79 693 144 717 203 c 5
 689 254 666 292 643 329 c 5
 599 289 573 264 573 193 c 4
 573 125 594 79 627 79 c 4
EndSplineSet
Validated: 1
Ligature2: "programming_symbols" ampersand ampersand
LCarets2: 1 0
EndChar

StartChar: logical_or_equals
Encoding: 286 -1 286
Width: 1440
Flags: H
LayerCount: 2
Fore
SplineSet
386 741 m 1
 386 -77 l 1
 330 -77 l 1
 330 741 l 1
 386 741 l 1
1110 481 m 5
 1110 397 l 5
 625 397 l 1
 625 296 l 1
 1110 296 l 5
 1110 212 l 5
 625 212 l 1
 625 -77 l 1
 569 -77 l 1
 569 741 l 1
 625 741 l 1
 625 481 l 1
 1110 481 l 5
EndSplineSet
Validated: 1
Ligature2: "called_ligatures-1" bar bar equal
LCarets2: 2 0 0
EndChar

StartChar: zero_x
Encoding: 287 -1 287
Width: 960
HStem: 1 77<184.111 301.382> 289 68<727.599 754.924> 579 68<193.586 295.447>
VStem: 85 64<219.871 497.382> 337 64<146.188 439.381> 607 61<170 206.372 439.628 476> 816 59<172 207.798>
LayerCount: 2
Fore
SplineSet
401 334 m 0
 401 116 341 1 243 1 c 0
 145 1 85 113 85 334 c 0
 85 511 149 647 243 647 c 0
 343 647 401 540 401 334 c 0
317 522 m 1
 311 538 295 579 243 579 c 0
 155 579 149 445 149 322 c 0
 149 271 150 271 153 216 c 1
 317 522 l 1
335 447 m 1
 167 125 l 1
 178 102 194 78 243 78 c 0
 325 78 337 141 337 334 c 0
 337 356 337 370 337 382 c 0
 337 399 337 413 335 447 c 1
607 476 m 5
 669 476 l 5
 669 473 739 357 741 357 c 4
 743 357 816 471 816 474 c 5
 875 474 l 5
 873 468 781 323 781 323 c 5
 781 323 875 174 875 172 c 5
 816 172 l 5
 816 175 743 289 741 289 c 4
 739 289 668 173 668 170 c 5
 607 170 l 5
 607 172 697 323 697 323 c 5
 697 323 607 474 607 476 c 5
EndSplineSet
Validated: 1
Ligature2: "programming_symbols" zero x
LCarets2: 1 0
EndChar

StartChar: numbersign_exclam
Encoding: 288 -1 288
Width: 960
HStem: 1 21G<230 291.472 377 437.866> 9 139<669 764.25> 232 64<312 387 449 516> 424 58<172 250 324 397 457 516> 638 20G<710.529 788>
VStem: 240 67<204.824 232 301 365.846> 250 70<376.75 424 482 554.333> 377 60<1 162.7> 408 58<524.111 668> 647 138<31.5947 124.882>
LayerCount: 2
Fore
SplineSet
516 292 m 1xbac0
 516 232 l 1
 447 232 l 1
 437 1 l 1
 428 1 l 1
 388 1 l 1
 377 1 l 1
 387 232 l 1
 307 232 l 1
 290 1 l 1
 280 1 l 1
 240 1 l 1
 230 1 l 1
 240 232 l 1xbd40
 172 232 l 1
 172 303 l 1
 244 301 l 1
 250 424 l 1
 172 424 l 1
 172 482 l 1
 252 482 l 1
 261 668 l 1
 338 668 l 1
 324 482 l 1
 399 482 l 1
 408 668 l 1
 466 668 l 1
 457 483 l 1
 516 483 l 1
 516 423 l 1
 455 423 l 1
 449 294 l 1
 516 292 l 1xbac0
312 298 m 1
 391 296 l 1
 397 423 l 1
 320 424 l 1x3a40
 312 298 l 1
647 78 m 4
 647 113 682 148 718 148 c 4
 752 148 785 114 785 79 c 4
 785 43 752 9 718 9 c 4x7840
 682 9 647 43 647 78 c 4
788 658 m 1
 756 223 l 5
 680 223 l 5
 712 658 l 1
 788 658 l 1
EndSplineSet
Validated: 1
Ligature2: "programming_symbols" numbersign exclam
LCarets2: 1 0
EndChar

StartChar: c_equal
Encoding: 289 -1 289
Width: 960
HStem: 150 84<157 803> 335 84<157 803>
LayerCount: 2
Fore
SplineSet
803 419 m 5
 803 335 l 5
 587 335 373 335 157 335 c 5
 157 419 l 5
 803 419 l 5
803 234 m 5
 803 150 l 5
 587 150 373 150 157 150 c 5
 157 234 l 5
 373 234 587 234 803 234 c 5
EndSplineSet
Validated: 1
Ligature2: "programming_symbols" equal equal
LCarets2: 1 0
EndChar

StartChar: c_not_equal
Encoding: 290 -1 290
Width: 960
Flags: W
HStem: 150 84<157 327 489 803> 335 84<157 449 610 803>
LayerCount: 2
Fore
SplineSet
803 234 m 5
 803 150 l 5
 433 150 l 5
 353 28 l 5
 247 28 l 5
 327 150 l 5
 157 150 l 5
 157 234 l 5
 383 234 l 5
 449 335 l 5
 157 335 l 5
 157 419 l 5
 504 419 l 5
 576 528 l 5
 682 528 l 5
 610 419 l 5
 803 419 l 5
 803 335 l 5
 555 335 l 5
 489 234 l 5
 803 234 l 5
EndSplineSet
Validated: 1
Ligature2: "programming_symbols" exclam equal
LCarets2: 1 0
EndChar

StartChar: less_than_or_equal
Encoding: 291 -1 291
Width: 960
Flags: H
LayerCount: 2
Fore
SplineSet
642 345 m 5
 642 267 l 5
 315 393 l 5
 642 546 l 5
 642 465 l 5
 454 397 l 5
 642 345 l 5
645 197 m 5
 645 129 l 5
 316 129 l 5
 316 197 l 5
 645 197 l 5
EndSplineSet
Validated: 1
Ligature2: "programming_symbols" less equal
LCarets2: 1 0
EndChar

StartChar: greater_than_or_equal
Encoding: 292 -1 292
Width: 960
Flags: HW
LayerCount: 2
Fore
SplineSet
318 345 m 5
 506 397 l 5
 318 465 l 5
 318 546 l 5
 645 393 l 5
 318 267 l 5
 318 345 l 5
315 197 m 5
 644 197 l 5
 644 129 l 5
 315 129 l 5
 315 197 l 5
EndSplineSet
Validated: 1
Ligature2: "programming_symbols" greater equal
EndChar

StartChar: greater_end
Encoding: 300 -1 300
Width: 480
Flags: W
HStem: 243 79<0 271>
LayerCount: 2
Fore
SplineSet
159 74 m 5
 159 166 l 5
 271 243 l 5
 0 243 l 1
 0 322 l 1
 271 322 l 5
 159 391 l 5
 159 482 l 5
 266 417 373 349 479 284 c 5
 159 74 l 5
EndSplineSet
Validated: 1
LCarets2: 1 0
EndChar

StartChar: less_less_equal
Encoding: 305 -1 305
Width: 1440
Flags: H
LayerCount: 2
Fore
SplineSet
1217 472 m 5
 1217 388 l 5
 657 386 l 5
 587 331 l 5
 643 285 l 5
 1217 287 l 5
 1217 203 l 5
 744 201 l 5
 815 143 l 5
 815 43 l 5
 464 331 l 5
 814 622 l 5
 814 510 l 5
 763 470 l 5
 1217 472 l 5
574 142 m 5
 574 43 l 5
 223 330 l 5
 573 623 l 5
 573 520 l 5
 346 330 l 5
 574 142 l 5
EndSplineSet
Validated: 1
Ligature2: "called_ligatures-1" less less equal
LCarets2: 2 0 0
EndChar

StartChar: greater_greater_equal
Encoding: 306 -1 306
Width: 1440
Flags: HW
LayerCount: 2
Fore
SplineSet
469 144 m 1
 697 332 l 1
 470 522 l 1
 470 625 l 1
 656 469 l 1
 1217 469 l 1
 1217 384 l 1
 758 384 l 1
 820 332 l 1
 760 283 l 1
 1217 283 l 1
 1217 198 l 1
 656 198 l 1
 469 45 l 1
 469 144 l 1
223 145 m 1
 451 333 l 1
 224 523 l 1
 224 626 l 1
 574 333 l 1
 223 46 l 1
 223 145 l 1
EndSplineSet
Validated: 1
Ligature2: "called_ligatures-1" greater greater equal
LCarets2: 2 0 0
EndChar

StartChar: bar_equal
Encoding: 307 -1 307
Width: 960
Flags: H
LayerCount: 2
Fore
SplineSet
814 510 m 5
 814 426 l 5
 202 426 l 1
 202 325 l 1
 814 325 l 5
 814 241 l 5
 202 241 l 1
 202 0 l 1
 146 0 l 1
 146 742 l 1
 202 742 l 1
 202 510 l 1
 814 510 l 5
EndSplineSet
Validated: 1
Ligature2: "programming_symbols" bar equal
LCarets2: 1 0
EndChar

StartChar: asciicircum_equal
Encoding: 308 -1 308
Width: 960
Flags: H
LayerCount: 2
Fore
SplineSet
880 419 m 5
 880 335 l 5
 307 335 l 5
 307 419 l 5
 309 419 l 5
 237 547 l 5
 171 422 l 5
 80 422 l 5
 237 680 l 5
 393 419 l 5
 880 419 l 5
880 234 m 5
 880 150 l 5
 307 150 l 5
 307 234 l 5
 880 234 l 5
EndSplineSet
Validated: 1
Ligature2: "programming_symbols" asciicircum equal
LCarets2: 1 0
EndChar

StartChar: less_equal_greater
Encoding: 310 -1 310
Width: 1440
Flags: H
LayerCount: 2
Fore
SplineSet
1035 63 m 5
 1035 151 l 5
 1071 176 l 5
 369 177 l 5
 405 152 l 5
 405 64 l 5
 75 311 l 5
 405 564 l 5
 405 469 l 5
 380 452 l 5
 1069 451 l 5
 1035 476 l 5
 1035 568 l 5
 1365 311 l 5
 1035 63 l 5
1186 366 m 5
 260 368 l 5
 178 311 l 5
 249 261 l 5
 1190 260 l 5
 1262 311 l 5
 1186 366 l 5
EndSplineSet
Validated: 1
LCarets2: 2 0 0
Ligature2: "programming_symbols" less equal greater
EndChar

StartChar: equal_equal_equal
Encoding: 311 -1 311
Width: 1440
HStem: 150 84<79 1361> 335 84<79 1361>
LayerCount: 2
Fore
SplineSet
1361 419 m 5
 1361 335 l 1
 934 335 506 335 79 335 c 1
 79 419 l 5
 1361 419 l 5
1361 234 m 5
 1361 150 l 1
 934 150 506 150 79 150 c 1
 79 234 l 1
 506 234 934 234 1361 234 c 5
EndSplineSet
Validated: 1
LCarets2: 2 0 0
Ligature2: "programming_symbols" equal equal equal
EndChar

StartChar: exclam_equal_equal
Encoding: 312 -1 312
Width: 1440
Flags: HW
LayerCount: 2
Fore
SplineSet
1361 234 m 1
 1361 150 l 1
 654 150 l 1
 574 28 l 1
 471 28 l 1
 551 150 l 1
 79 150 l 1
 79 234 l 1
 607 234 l 1
 673 335 l 1
 79 335 l 1
 79 419 l 1
 728 419 l 1
 800 528 l 1
 903 528 l 1
 831 419 l 1
 1361 419 l 1
 1361 335 l 1
 776 335 l 1
 710 234 l 1
 1361 234 l 1
EndSplineSet
Validated: 1
LCarets2: 2 0 0
Ligature2: "programming_symbols" exclam equal equal
EndChar

StartChar: question_period
Encoding: 314 -1 314
Width: 960
Flags: H
LayerCount: 2
Fore
SplineSet
567 78 m 4
 567 113 604 148 639 148 c 4
 674 148 709 114 709 79 c 4
 709 44 674 9 639 9 c 4
 603 9 567 43 567 78 c 4
331 78 m 0
 331 113 368 148 403 148 c 0
 438 148 473 114 473 79 c 0
 473 44 438 9 403 9 c 0
 367 9 331 43 331 78 c 0
495 506 m 0
 495 574 465 595 403 595 c 0
 351 595 325 552 317 536 c 1
 251 538 l 1
 259 553 275 578 297 602 c 0
 324 632 360 657 403 657 c 0
 489 657 559 607 559 506 c 0
 559 478 532 450 501 420 c 0
 471 390 435 358 435 316 c 0
 435 279 437 243 437 226 c 1
 365 226 l 1
 366 243 367 279 367 316 c 0
 367 380 495 448 495 506 c 0
EndSplineSet
Validated: 1
LCarets2: 1 0
Ligature2: "programming_symbols" question period
EndChar

StartChar: less_asciitilde_greater
Encoding: 315 -1 315
Width: 1440
Flags: H
HStem: 11 21G<403.497 437> 121 68<594.3 695.693> 143 68<899.713 1011.35> 203 69<431.06 531.7 745.502 859.564>
LayerCount: 2
Fore
SplineSet
1003 15 m 5x80
 1003 93 l 5
 1230 212 l 5
 1003 321 l 5
 1003 402 l 5
 1333 212 l 5
 1003 15 l 5x80
437 89 m 5
 437 11 l 5
 107 208 l 5
 437 398 l 5
 437 317 l 5
 210 208 l 5
 437 89 l 5
1041 253 m 5
 1041 193 l 5
 1014 163 985 143 969 143 c 4xa0
 903 143 864 203 789 203 c 4
 766 203 740 184 725 171 c 5
 698 141 669 121 653 121 c 4
 587 121 548 203 473 203 c 4
 443 203 409 171 399 161 c 5
 399 220 l 5
 426 250 456 272 473 272 c 4
 539 272 578 189 653 189 c 4xd0
 677 189 704 211 718 224 c 4
 744 253 773 273 789 273 c 4
 855 273 894 211 969 211 c 4xa0
 998 211 1031 243 1041 253 c 5
EndSplineSet
Validated: 1
LCarets2: 2 0 0
Ligature2: "programming_symbols" less asciitilde greater
EndChar

StartChar: greater_start
Encoding: 321 -1 321
Width: 480
Flags: HW
HStem: 243 79<263 480>
LayerCount: 2
Fore
SplineSet
0 74 m 1
 0 166 l 1
 173 281 l 1
 0 391 l 1
 0 482 l 1
 263 323 l 1
 480 323 l 1
 480 243 l 1
 263 243 l 1
 0 74 l 1
EndSplineSet
Validated: 1
LCarets2: 1 0
EndChar

StartChar: greater_mid
Encoding: 322 -1 322
Width: 480
Flags: HW
HStem: 243 79<-960 -294 -143 480>
LayerCount: 2
Fore
SplineSet
74 74 m 1
 74 166 l 1
 186 243 l 1
 0 243 l 5
 0 322 l 5
 186 322 l 1
 74 391 l 1
 74 482 l 1
 337 322 l 1
 480 322 l 1
 480 243 l 1
 337 243 l 1
 74 74 l 1
EndSplineSet
Validated: 1
LCarets2: 2 0 0
EndChar

StartChar: less_end
Encoding: 323 -1 323
Width: 480
Flags: HW
HStem: 243 79<208 479>
LayerCount: 2
Fore
SplineSet
480 74 m 5
 217 243 l 5
 0 243 l 5
 0 323 l 5
 217 323 l 5
 480 482 l 5
 480 391 l 5
 307 281 l 5
 480 166 l 5
 480 74 l 5
EndSplineSet
Validated: 1
EndChar

StartChar: less_mid
Encoding: 324 -1 324
Width: 480
Flags: HW
HStem: 243 79<774 1440 0 623>
LayerCount: 2
Fore
SplineSet
406 74 m 1
 143 243 l 1
 0 243 l 1
 0 322 l 1
 143 322 l 1
 406 482 l 1
 406 391 l 1
 294 322 l 1
 480 322 l 5
 480 243 l 5
 294 243 l 1
 406 166 l 1
 406 74 l 1
EndSplineSet
Validated: 1
EndChar

StartChar: less_start
Encoding: 325 -1 325
Width: 480
Flags: W
HStem: 243 79<208 479>
LayerCount: 2
Fore
SplineSet
320 74 m 5
 0 284 l 5
 106 349 213 417 320 482 c 5
 320 391 l 5
 208 322 l 5
 479 322 l 1
 479 243 l 1
 208 243 l 5
 320 166 l 5
 320 74 l 5
EndSplineSet
Validated: 1
EndChar

StartChar: bar_left
Encoding: 326 -1 326
Width: 480
Flags: HW
HStem: 243 79<-860 -194 -43 580>
LayerCount: 2
Fore
SplineSet
100 531 m 1
 194 531 l 1
 194 322 l 1
 480 322 l 5
 480 243 l 5
 194 243 l 1
 194 33 l 1
 100 32 l 1
 100 531 l 1
EndSplineSet
Validated: 1
EndChar

StartChar: bar_mid
Encoding: 327 -1 327
Width: 480
Flags: HW
HStem: 243 79<-960 -294 -143 480>
LayerCount: 2
Fore
SplineSet
0 243 m 1
 0 322 l 1
 192 322 l 1
 192 531 l 1
 286 531 l 5
 286 322 l 5
 480 322 l 1
 480 243 l 1
 286 243 l 5
 286 33 l 5
 192 32 l 1
 192 243 l 1
 0 243 l 1
EndSplineSet
Validated: 1
EndChar

StartChar: bar_right
Encoding: 328 -1 328
Width: 480
Flags: HW
HStem: 243 79<-960 -294 -143 480>
LayerCount: 2
Fore
SplineSet
0 243 m 1
 0 322 l 1
 286 322 l 5
 286 531 l 5
 380 531 l 5
 380 33 l 5
 286 32 l 5
 286 243 l 5
 0 243 l 1
EndSplineSet
Validated: 1
EndChar

StartChar: double_greater_start
Encoding: 329 -1 329
Width: 480
Flags: HW
HStem: 243 79<263 480>
LayerCount: 2
Fore
SplineSet
153 74 m 1
 153 166 l 1
 326 281 l 1
 153 391 l 1
 153 482 l 1
 480 284 l 1
 153 74 l 1
EndSplineSet
Validated: 1
EndChar

StartChar: double_less_start
Encoding: 331 -1 331
Width: 480
Flags: W
VStem: 153 327
LayerCount: 2
Fore
SplineSet
480 74 m 5
 153 284 l 5
 480 482 l 5
 480 391 l 5
 307 281 l 5
 480 166 l 5
 480 74 l 5
EndSplineSet
Validated: 1
EndChar

StartChar: double_bar_start
Encoding: 333 -1 333
Width: 480
Flags: HW
HStem: 243 79<-811 -145 6 629>
LayerCount: 2
Fore
SplineSet
286 531 m 5
 380 531 l 5
 380 33 l 5
 286 32 l 5
 286 531 l 5
EndSplineSet
Validated: 1
EndChar

StartChar: double_bar_end
Encoding: 334 -1 334
Width: 480
Flags: HW
HStem: 243 79<-953 -287 -136 487>
LayerCount: 2
Fore
SplineSet
100 531 m 1
 194 531 l 1
 194 33 l 1
 100 32 l 1
 100 531 l 1
EndSplineSet
Validated: 1
EndChar

StartChar: narrow_equal
Encoding: 336 -1 335
Width: 480
VWidth: 833
Flags: W
HStem: 150 84<79 401> 335 84<79 401>
VStem: 79 322<150 234 335 419>
LayerCount: 2
Fore
SplineSet
401 234 m 1
 401 150 l 1
 79 150 l 1
 79 234 l 1
 401 234 l 1
401 419 m 1
 401 335 l 1
 79 335 l 1
 79 419 l 1
 401 419 l 1
EndSplineSet
Validated: 1
EndChar

StartChar: long_dash
Encoding: 337 -1 336
Width: 480
VWidth: 833
Flags: W
HStem: 243 79<0 480>
LayerCount: 2
Fore
SplineSet
480 243 m 5
 0 243 l 1
 0 322 l 1
 480 322 l 5
 480 243 l 5
EndSplineSet
Validated: 1
EndChar
